<svg xmlns="http://www.w3.org/2000/svg" viewBox="0 0 259.73 259.73"><defs><style>.cls-1{fill:#6bcde7;stroke:#000;stroke-miterlimit:10;stroke-width:6px;}</style></defs><title>camera_1</title><g id="Layer_2" data-name="Layer 2"><g id="Layer_1-2" data-name="Layer 1"><rect class="cls-1" x="3" y="3" width="253.73" height="253.73" rx="15.45"/><path d="M137.86,118.4a25.2,25.2,0,1,0,25.44,25.19A25.31,25.31,0,0,0,137.86,118.4Zm-17.7,38.92s-5.22-4.57-5.22-13.73,5.22-13.72,5.22-13.72Z"/><path d="M226,97.9h-.95V82.47l-1.4-1.39V76.75l-3.09-3.06h-5l-.12-7.89a.63.63,0,0,0-.63-.62l-25-.1a1.18,1.18,0,0,0-1.19,1.11l-.22,3.34H163A3.54,3.54,0,0,0,159.4,66h-22a3,3,0,0,0-2,.75l-1.85,1.65H100.48l-.64-3.17-.16-.31a2,2,0,0,0-1.76-1.07H58.72a1.53,1.53,0,0,0-1.49,1.21L57,66.5H44.49a1.34,1.34,0,0,0-1.27.93l-.56,1.82v5.17H35.49a1.83,1.83,0,0,0-1.1.38l-1,.77a2.15,2.15,0,0,0-.86,1.72v3.37l-1.28,1.47,1.28,98.37a.86.86,0,0,0,.24.58l.17.16a1.58,1.58,0,0,0,.72.41l9.52,2.59a1.13,1.13,0,0,0,.32,0H213.78a1.32,1.32,0,0,0,.39-.06l9.74-2.81a.43.43,0,0,0,.3-.4v-3.63l2.14-1a3.72,3.72,0,0,0,2.13-3.36V100.33A2.44,2.44,0,0,0,226,97.9ZM109.29,83.05a2.62,2.62,0,0,1,2.63-2.61h7.53a2.62,2.62,0,0,1,2.63,2.61V87.7a2.61,2.61,0,0,1-2.63,2.6h-7.53a2.62,2.62,0,0,1-2.63-2.6Zm-8,14.29A1.7,1.7,0,0,1,99.62,99H61.25a1.7,1.7,0,0,1-1.71-1.69V80.44a1.7,1.7,0,0,1,1.71-1.69H99.62a1.7,1.7,0,0,1,1.71,1.69Zm36.53,80.26a34,34,0,1,1,34.33-34A34.17,34.17,0,0,1,137.86,177.6Zm50.89-83.46a1.09,1.09,0,0,1-1.1,1.09H156.87a1.09,1.09,0,0,1-1.1-1.09V76.61a1.09,1.09,0,0,1,1.1-1.09h30.78a1.09,1.09,0,0,1,1.1,1.09Z"/></g></g></svg>