<svg xmlns="http://www.w3.org/2000/svg" viewBox="0 0 244.53 130.26"><defs><style>.cls-1{fill:none;}</style></defs><title>camera_1</title><g id="Layer_2" data-name="Layer 2"><g id="Layer_1-2" data-name="Layer 1"><rect class="cls-1" width="244.53" height="130.26" rx="15.45"/><path d="M130.26,60.66a25.2,25.2,0,1,0,25.43,25.2A25.32,25.32,0,0,0,130.26,60.66Zm-17.7,38.93s-5.22-4.58-5.22-13.73,5.22-13.73,5.22-13.73Z"/><path d="M218.42,40.17h-.94V24.73l-1.4-1.39V19L213,16h-5l-.11-7.88a.63.63,0,0,0-.64-.62l-25-.11a1.19,1.19,0,0,0-1.19,1.11l-.22,3.35H155.35a3.53,3.53,0,0,0-3.56-3.52h-22a2.94,2.94,0,0,0-2,.75L126,10.67H92.88L92.24,7.5l-.17-.31a2,2,0,0,0-1.75-1.06H51.12a1.51,1.51,0,0,0-1.49,1.21l-.29,1.43H36.89a1.32,1.32,0,0,0-1.27.93l-.56,1.81v5.18H27.89a1.8,1.8,0,0,0-1.1.37l-1,.77a2.19,2.19,0,0,0-.85,1.72v3.37L23.65,24.4l1.28,98.36a.83.83,0,0,0,.24.58l.16.16a1.79,1.79,0,0,0,.73.42l9.52,2.59a1.65,1.65,0,0,0,.31,0H206.18a1.32,1.32,0,0,0,.39-.06l9.74-2.81a.41.41,0,0,0,.3-.4v-3.63l2.14-1a3.74,3.74,0,0,0,2.13-3.36V42.6A2.44,2.44,0,0,0,218.42,40.17ZM101.69,25.31a2.61,2.61,0,0,1,2.63-2.6h7.53a2.61,2.61,0,0,1,2.63,2.6V30a2.61,2.61,0,0,1-2.63,2.6h-7.53a2.61,2.61,0,0,1-2.63-2.6Zm-8,14.29A1.7,1.7,0,0,1,92,41.29H53.64a1.69,1.69,0,0,1-1.7-1.69V22.71A1.69,1.69,0,0,1,53.64,21H92a1.7,1.7,0,0,1,1.71,1.69Zm36.53,80.26a34,34,0,1,1,34.33-34A34.16,34.16,0,0,1,130.26,119.86ZM181.15,36.4a1.1,1.1,0,0,1-1.1,1.09H149.27a1.09,1.09,0,0,1-1.1-1.09V18.87a1.09,1.09,0,0,1,1.1-1.09h30.78a1.1,1.1,0,0,1,1.1,1.09Z"/></g></g></svg>