<svg xmlns="http://www.w3.org/2000/svg" viewBox="0 0 202.74 157.73"><defs><style>.cls-1{fill:#fff;}</style></defs><title>camera3</title><g id="Layer_2" data-name="Layer 2"><g id="Layer_1-2" data-name="Layer 1"><circle cx="101.37" cy="90.41" r="30.8" transform="translate(-4.11 175.99) rotate(-80.78)"/><path d="M195.14,25.51H165.37L150.54,4.59A11.41,11.41,0,0,0,141.22,0H61.58a11.41,11.41,0,0,0-9.32,4.59L37.43,25.51H34a5.63,5.63,0,0,0-5.18-3.44H18.48a5.65,5.65,0,0,0-5.18,3.44H7.6c-4.2,0-7.6,3.06-7.6,6.84V150.89c0,3.78,3.4,6.84,7.6,6.84H195.14c4.2,0,7.6-3.06,7.6-6.84V32.35C202.74,28.57,199.34,25.51,195.14,25.51ZM101.37,133.9a43.49,43.49,0,1,1,43.49-43.49A43.49,43.49,0,0,1,101.37,133.9Zm82.78-72.46a8.49,8.49,0,0,1-6,2.5H164.51a8.51,8.51,0,0,1,0-17h13.63a8.5,8.5,0,0,1,6,14.52Z"/><circle class="cls-1" cx="101.37" cy="90.41" r="30.8" transform="translate(-4.11 175.99) rotate(-80.78)"/><circle cx="101.37" cy="90.41" r="30.8" transform="translate(-4.11 175.99) rotate(-80.78)"/></g></g></svg>