<svg id="Layer_1" data-name="Layer 1" xmlns="http://www.w3.org/2000/svg" xmlns:xlink="http://www.w3.org/1999/xlink" viewBox="0 0 89.62 89.29"><defs><style>.cls-1{fill:none;}.cls-2{clip-path:url(#clip-path);}.cls-3{fill:#fed04e;}.cls-4{fill:#fec737;}.cls-5{fill:#fdc538;}.cls-6{fill:#fed25c;}.cls-7{fill:#fec93c;}.cls-8{fill:#fec02f;}.cls-9{fill:#fdbe2f;}.cls-10{fill:#fca7db;}.cls-11{fill:#ec96cb;}.cls-12{fill:#fed04b;}.cls-13{fill:#c15595;}.cls-14{fill:#dc74b3;}.cls-15{fill:#ce66a5;}.cls-16{fill:#c05495;}.cls-17{fill:#cc69a3;}.cls-18{fill:#dd7eb8;}.cls-19{fill:#c1659d;}.cls-20{fill:#dd74b4;}.cls-21{fill:#c35392;}.cls-22{fill:#fed253;}.cls-23{fill:#c05797;}.cls-24{fill:#ed84c4;}.cls-25{fill:#fcc94a;}.cls-26{fill:#f8bc3b;}.cls-27{fill:#e8921a;}.cls-28{fill:#cf66a7;}.cls-29{fill:#bf79a5;}.cls-30{fill:#b7448d;}.cls-31{fill:#c15792;}.cls-32{fill:#f9c145;}.cls-33{fill:#bb4d8a;}.cls-34{fill:#9d4e7e;}.cls-35{fill:#a0457c;}.cls-36{fill:#9e5682;}.cls-37{fill:#cc619e;}.cls-38{fill:#ad4181;}.cls-39{fill:#ab5b89;}.cls-40{fill:#bf84a9;}.cls-41{fill:#c45f9c;}.cls-42{fill:#ae6791;}.cls-43{fill:#a95e8b;}.cls-44{fill:#ed83c4;}.cls-45{fill:#f0a638;}.cls-46{fill:#b9719d;}.cls-47{fill:#fed13f;}.cls-48{fill:#fed364;}.cls-49{fill:#fed25b;}.cls-50{fill:#bd5087;}.cls-51{fill:#ef9d1f;}.cls-52{fill:#ea941b;}.cls-53{fill:#e0871e;}.cls-54{fill:#bd528a;}.cls-55{fill:#be5194;}.cls-56{fill:#f3b74a;}.cls-57{fill:#f9c549;}.cls-58{fill:#fed366;}.cls-59{fill:#fdcd4b;}.cls-60{fill:#c66091;}.cls-61{fill:#fed04f;}.cls-62{fill:#fed259;}.cls-63{fill:#ea951c;}.cls-64{fill:#ec9b1e;}.cls-65{fill:#e58f1a;}.cls-66{fill:#e28b18;}.cls-67{fill:#e9941b;}.cls-68{fill:#e58e19;}.cls-69{fill:#eb92c9;}.cls-70{fill:#d36aaa;}.cls-71{fill:#d16aa9;}.cls-72{fill:#d46eab;}.cls-73{fill:#d878b3;}.cls-74{fill:#d770af;}.cls-75{fill:#f8c249;}.cls-76{fill:#f6bd4a;}.cls-77{fill:#d36dab;}.cls-78{fill:#b3568d;}.cls-79{fill:#c55c9e;}.cls-80{fill:#fed15a;}.cls-81{fill:#d97ab5;}.cls-82{fill:#d979b4;}</style><clipPath id="clip-path"><rect class="cls-1" x="0.08" y="-0.14" width="89.53" height="89.53" rx="10.03"/></clipPath></defs><title>styledcomponent</title><g class="cls-2"><path class="cls-3" d="M19.41,90,2,90c-.65-2.45,1.32-3.6,2.69-4.78,10.81-9.33,21-19.4,32-28.49,2.39-2,4.62-2.95,6.56.5C36,64,28.19,70.26,22.41,78c8.09-3.16,15.82-7.59,21.94-14.45a5.81,5.81,0,0,1,1.51-1.33c2.08-.5,3.75-2.84,6.26-1.43,1,2.72-1.53,3.89-2.52,5.74-1.07.73-2.06,1.57-3.18,2.22-4.11,3.56-8.12,7.24-12.53,10.44-1.23,1.08-2.79,1.75-3.9,3C26.72,85.1,23,87.42,19.41,90Z"/><path class="cls-4" d="M43,57.35c-2.12-1.49-4-.92-5.7.72-7.41,7.1-15.66,13.31-22.67,20.84A113.82,113.82,0,0,1,2,90c-4.27.54-2.36-2.56-2.6-4.4C1,82.66,3.79,81,6.2,79c9.79-8.18,19-17,29.17-24.75,2.23-1.7,4.14-2.24,6.57-1a12.31,12.31,0,0,1,2.29,1.23,2.89,2.89,0,0,1,1.07,1.58,2.47,2.47,0,0,1-.19,1.23,1.85,1.85,0,0,1-1.07.55A1.65,1.65,0,0,1,43,57.35Z"/><path class="cls-5" d="M32,90,21.11,90c-.65-2.82,2.33-2.67,3.42-4.09,1.35-1.78,3.55-2.72,5.14-4.34a32.85,32.85,0,0,1,3.87-3.1c4.69-3.16,8.56-7.31,13.08-10.67a2.87,2.87,0,0,1,1.86-.32c2.4,1.45,3.74,4.13,6.29,5.4a2.52,2.52,0,0,1,.48,1.21,2.12,2.12,0,0,1-.5,1.17c-6.7-.81-9.76,4.47-13.7,8.23C38.34,86.08,35.79,88.85,32,90Z"/><path class="cls-6" d="M32,90c4.23-5.33,9.7-9.46,14.21-14.51,2.67-3,5.7-.43,8.52-.86a1.48,1.48,0,0,1,1.77-.18c.75,1.89-.69,2.51-1.94,2.86-4.57,1.26-6.14,5.33-9.07,8.88,3.27.63,5.47-2.66,8.22-1,.76.77.52,1.52,0,2.26A22.77,22.77,0,0,1,50.27,90Z"/><path class="cls-7" d="M-.57,71V65.51c2.63-5.25,8.05-7.63,12-11.55,1.79-1.77,4.14-3.05,5.81-5a5.33,5.33,0,0,1,5.64-2,7.07,7.07,0,0,1,2.52,1A5.5,5.5,0,0,1,27.89,51a2.11,2.11,0,0,1-.95,1.71,3.61,3.61,0,0,1-1.88.43,5,5,0,0,0-4.51.88c-2.8,1.38-4.67,3.84-6.73,6-3.55,3.76-7.76,6.75-11.56,10.21C1.48,71,.6,71.68-.57,71Z"/><path class="cls-8" d="M41.78,54.66c-2.3-1-4.13-.66-6.07,1.2-7.14,6.82-15.4,12.31-22.51,19.28C9.24,79,4.89,83.26-.57,85.56l0-3.63.81-.88a34.29,34.29,0,0,1,4.57-3.84c1.91-1.37,3.41-3.25,5.41-4.53a17.12,17.12,0,0,0,3.62-3.88,3.5,3.5,0,0,1,1-.75c5-2,8.44-6,12.59-9.17a31.35,31.35,0,0,0,7-6.91A4.28,4.28,0,0,1,36,50.77c1.78-.58,3.56-.92,5.25.28C42.26,52.13,43.12,53.24,41.78,54.66Z"/><path class="cls-9" d="M23,48.27c-6,0-8.09,5.72-12.35,8.3C6.59,59.05,3.75,63.23-.57,65.51c-.95-3.78,2-5.39,4.16-7.42,1.66,0,2.05-1.63,3.07-2.45L21.73,43C23.55,44.43,24.45,46.06,23,48.27Z"/><path class="cls-10" d="M77.42-.74,84-.68a3,3,0,0,1,.75,3.32c-1.19,4.14-1.36,8.62-4,12.28A2,2,0,0,1,78,14.41Q70.58,8.57,77.42-.74Z"/><path class="cls-11" d="M72.2,39.25c.29-2.24.51-4.49,1.79-6.45,1.16-1.38.63-3.33,1.61-4.78a1.27,1.27,0,0,1,.07-.64c.2-2.29-.11-4.71,1.82-6.51l-.08-2.6c.37-1.23.15-2.95,2-3.08a2.55,2.55,0,0,1,2.79,2.41c-.56,3.62-2,7-2.75,10.58l-.27,1.26c-.72,1.93-1.66,3.8-1.68,5.93a22.1,22.1,0,0,0,.08,2.44c-.33,1-.67,2-1,3.07C74.16,42.93,73.15,41.17,72.2,39.25Z"/><path class="cls-12" d="M-.57,71,15.87,55.8c1.3-1.21,2.37-2.74,4.34-3,1.09,2.15-.89,3.08-1.77,4.44C15.33,59.18,14,62.72,11.26,65,9.1,66.17,7.8,68.27,6,69.74c1.48-1.21,3-2.24,4.61-.22-1.78,4.7-7.33,8.18-11.13,7Z"/><path class="cls-13" d="M43.1,44.84c5.07-3.51,9.4-8,14.83-11.06,2.74-1.53,5.64-2.22,7.29,1.13.64,1.29-.37,3.38-.63,5.1-1.78.36-1.81-1.29-2.52-2.17-.9-1-1.89-.85-2.92-.2C57,39.06,54.9,40.53,52.81,42a11.4,11.4,0,0,0-3.73,2.76c-2,1.09-2.88,3.66-5.38,4.1a2.38,2.38,0,0,1-1.22-.52,2.69,2.69,0,0,1-.58-1.93A2.06,2.06,0,0,1,43.1,44.84Z"/><path class="cls-14" d="M75.6,48.25a14.38,14.38,0,0,1-4.38,6.46c-1,1.27-1.78,2.92-3.89,2.39-2.81-2.22-.29-4.19.29-6.26C69,47.92,69.1,44.37,72,42.23a2.79,2.79,0,0,1,2.14-.06C76.59,43.72,75.32,46.17,75.6,48.25Z"/><path class="cls-4" d="M-.55,76.49A20,20,0,0,0,10.22,69.2a2.25,2.25,0,0,1,1.33-2.09,9.52,9.52,0,0,0,4.16-3A3.34,3.34,0,0,1,17,63.57a2.64,2.64,0,0,1,2.51.86c-.11,3-2.45,3.88-4.74,4.77l0,0a20.8,20.8,0,0,1-3.56,4c-2.33,1.18-4.06,3.12-6.07,4.7-1.75,1.28-3.28,2.83-5,4.08H-.6C-.58,80.12-.57,78.3-.55,76.49Z"/><path class="cls-15" d="M45.61,35.51c.08,3-3.8,4-3.53,7.07-1,3.64-3.84,4.86-7.06,5.68a3,3,0,0,1-1.19-.54c-1.13-2.4.91-3.41,2.05-4.89C37.63,40.58,40.7,39,40,35.46a5.8,5.8,0,0,0-.43-.82c-1.58-.88-4,2.77-5-1,1.09-2.36,3.49-3.1,5.45-4.34,1.37-.87,3-1.61,4.55-.47s1.12,2.62,1,4.09C45.49,33.81,45,34.67,45.61,35.51Z"/><path class="cls-16" d="M45.61,35.51c-1.86-1.62.65-5.76-2.71-5.95s-6,2.36-8.16,5.05c-.05.21-.09.41-.13.61a39.39,39.39,0,0,1-3.85,4.21c-1.51.85-2.52,2.86-4.74,2A1.56,1.56,0,0,1,25.61,39c3.93-3.43,7.85-6.91,12.37-9.55,2.16-1.26,4.3-3.6,7.26-1.24S46.42,33,45.61,35.51Z"/><path class="cls-17" d="M62.73,43.65c-.58,1.5-2.15,2.59-1.85,4.45a12.89,12.89,0,0,1-2.5,3A18.17,18.17,0,0,0,55.69,54a7.56,7.56,0,0,1-1.93,1.43A21.13,21.13,0,0,0,51,56.86a3.78,3.78,0,0,1-1.83.71,3.12,3.12,0,0,1-1.35-.19c-1.19-.6-2.65-1-2.48-2.79.46-1.13,1.62-1.42,2.49-2.06,4.32-1.88,6.74-6,10.31-8.78,1.31-.86,1.55-3.1,3.7-2.88C63,41.53,62.24,42.79,62.73,43.65Z"/><path class="cls-18" d="M77.42-.74A51.33,51.33,0,0,1,75.9,6.18c-1.19,3.29-.48,5.73,2.38,7.63a1.32,1.32,0,0,1-.88.87c-1.83-.79-3.58-1.68-4.48-3.61C71.76,9.58,72,7.94,72.4,6.28c.34-1.11.54-2.25.9-3.35C74,1.76,73.84.28,74.78-.79Z"/><path class="cls-19" d="M71.08,57.38c.09,3-3.84,4.34-3,7.6-.65,2.32-2.74,3.5-4.17,5.2A7.8,7.8,0,0,1,62,71.86c-2.3,1-4.47,2.52-7.2,1.92l.08-.38c-.89-.74-2.63-.85-2-2.71,5.87-2.45,10.81-6,13.53-12a3,3,0,0,1,.83-1C68.46,57.28,69.7,56.51,71.08,57.38Z"/><path class="cls-20" d="M86.63-.7h1.82C89.93,5,87.23,9.89,85.42,15a3.33,3.33,0,0,1-1.33.72,3.06,3.06,0,0,1-2.82-.58c.54-3.61,1.86-7,2.42-10.67C84.7,2.74,84.56.38,86.63-.7Z"/><path class="cls-21" d="M68.44,51.05c.34,1.92-1.62,3.46-.89,5.45.26.84-.32,1.23-.87,1.64a2.84,2.84,0,0,1-2.54.14,6,6,0,0,0-3.28-1.16,2.33,2.33,0,0,1-1.07-.63,2.65,2.65,0,0,1-.38-1.22,1.67,1.67,0,0,1,1-1.52,10.62,10.62,0,0,0,7.18-4.54C69.24,49.18,69,50.06,68.44,51.05Z"/><path class="cls-22" d="M53,87.37c.3-.6.61-1.2.92-1.8,1-4.45,7-10.4,11.07-11a1,1,0,0,1-.1,1.21,30.11,30.11,0,0,1-11,12.4A1.11,1.11,0,0,1,53,87.37Z"/><path class="cls-23" d="M83.88,14.65l.88-.06c1.72-2.72,1.86-5.93,2.84-8.88.56-1.66.14-3.94,2.5-4.68,0,2.73,0,5.46,0,8.19-.78,2,.32,4.64-2.19,6a5,5,0,0,1-3.91.63A.79.79,0,0,1,83.88,14.65Z"/><path class="cls-24" d="M84.79,4.61c-1.73,3.14-.19,7.48-3.68,10a.58.58,0,0,1-.91,0Q82.09,6.94,84-.68l1.69,0C85.36,1.07,85.5,2.91,84.79,4.61Z"/><path class="cls-25" d="M64.84,75.73l-.08-1.1A6.65,6.65,0,0,1,62.63,69,9.52,9.52,0,0,1,68,65C68.93,69.15,67.54,72.63,64.84,75.73Z"/><path class="cls-26" d="M35.05,47.47l7-4.89c1,.48.89,1.41,1,2.26-.06.5-.13,1-.2,1.49-.66,1-.87,2.42-2.29,2.85a4,4,0,0,1-1.25.19,3.22,3.22,0,0,0-3.22.7c-1.06,1-2.31,1.24-3.45,0C32.4,48.21,33.82,47.93,35.05,47.47Z"/><path class="cls-27" d="M30.23,82l-9.12,8h-1.7c1.8-4.63,6.63-5.94,9.87-9C30.15,80.76,30.47,81.08,30.23,82Z"/><path class="cls-28" d="M90.1,1c-1.67,2.77-1.87,6-2.78,9-.51,1.69-.71,3.6-2.56,4.56L88.45-.69C89.87-.94,90.38-.33,90.1,1Z"/><path class="cls-29" d="M80.2,14.54l.91,0,2.77.07,0,.85c.44,1.68-1.47,2.9-.9,4.6A20.4,20.4,0,0,0,82,22.79a.82.82,0,0,1-1.24-.26c-.05-1.45-.47-2.93.38-4.29-.07-1.06-.4-2.16-1.54-2.25-1.43-.12-1.25,1.72-2.22,2.28-1.67-1.19.33-2.39,0-3.59l.88-.87Z"/><path class="cls-30" d="M25.61,39c.34.66.67,1.32,1,2a2.1,2.1,0,0,1,.17,2.28,4.77,4.77,0,0,0-.73,3.27,3.41,3.41,0,0,1-.4,1.72,5.38,5.38,0,0,1-.9.82L23,48.27c-.43-1.75-.87-3.5-1.3-5.24Z"/><path class="cls-31" d="M68.44,51.05c-.28-.62-.57-1.23-.85-1.84a8.9,8.9,0,0,1,3.51-7.39,1.09,1.09,0,0,1,1,1C70.87,45.57,69.65,48.31,68.44,51.05Z"/><path class="cls-32" d="M60.41,53.75l-.28,1.51c-.17.8-.75.85-1.41.77-2.11-1.11-.61-3.45-1.67-4.92a1.8,1.8,0,0,1,.4-1.09,3.76,3.76,0,0,1,3.43-1.92C61.8,50.07,60.25,51.84,60.41,53.75Z"/><path class="cls-33" d="M72.08,42.84l-1-1c.36-.86.73-1.72,1.1-2.57a7.2,7.2,0,0,0,4.39,1.63c0,.94,0,1.88-.08,2.82-1.16.58-1.8-.45-2.65-.86Z"/><path class="cls-34" d="M83,20.1c-1.07-1.8-.09-3.2.9-4.6l3.67-.82c.44.24,1,.32,1.14.93C86.73,17.07,83.17,16.46,83,20.1Z"/><path class="cls-35" d="M66.64,57.39l.91-.89,3.67-1.79c0,.89-.09,1.78-.14,2.67l-3.53,1C66.72,58.53,66.39,58.24,66.64,57.39Z"/><path class="cls-36" d="M81.11,22.76l.92,0c-.6,2.14-.7,4.42-1.92,6.37A.77.77,0,0,1,79,28.81C79.29,26.66,78.75,24.19,81.11,22.76Z"/><path class="cls-37" d="M73.86,42.84l2.65.86a6,6,0,0,1-.91,4.55Z"/><path class="cls-38" d="M88.66,15.61l-1.14-.93c1.72-1.41,1.43-3.78,2.59-5.46C89.7,11.37,91.76,14.08,88.66,15.61Z"/><path class="cls-39" d="M73,5.53c0,1.85-.07,3.69-.1,5.54-3.3-1.43-1.71-3.53-.77-5.55A.54.54,0,0,1,73,5.53Z"/><path class="cls-40" d="M77.49,20.87q-.9,3.25-1.82,6.51C74.41,24.69,74.9,22.49,77.49,20.87Z"/><path class="cls-41" d="M62.73,43.65c-.22-.88-.45-1.77-.68-2.65-.06-.19-.11-.39-.17-.58a4.26,4.26,0,0,1,.29-3.54,1.41,1.41,0,0,1,1.66-.46c.05,1.24,0,2.51.76,3.59Z"/><path class="cls-42" d="M77.6,37.81l-.93-2.13c.82-1-.23-2.72,1.43-3.31a1.48,1.48,0,0,1,1.14.43C78,34.24,79.06,36.43,77.6,37.81Z"/><path class="cls-43" d="M73,5.53h-.87a4,4,0,0,1,.9-3.62c.8-.21,1.18,0,.93.9Z"/><path class="cls-44" d="M84.79,4.61c0-1.82-.07-3.65.87-5.32h1Z"/><path class="cls-45" d="M6.66,55.64C6.07,57,5.92,58.9,3.6,58.09A6.88,6.88,0,0,1,6.66,55.64Z"/><path class="cls-46" d="M74,2.8l-.93-.9c.08-1.21.1-2.47,1.73-2.69A5.06,5.06,0,0,1,74,2.8Z"/><path class="cls-47" d="M53,87.37l.86.76c-1.2.59-1.77,2.36-3.54,1.85Z"/><path class="cls-43" d="M79.24,32.8h-1c-.33-1.23-.56-2.46.29-3.6v.06c.24-.67.52-.69.86-.08h.76C80.5,30.54,79.41,31.56,79.24,32.8Z"/><path class="cls-48" d="M57.51,51.07c2.9,1.1,1.21,3.15,1,4.89.12,2.88-1.72,4-4.12,4.55-3.36-.76-5.55,1.32-7.82,3.23l-.91.9a140,140,0,0,1-11.94,8.75c-1.56,1-3.27,2.14-4.8.31S28.43,70.22,30,69c4.59-3.56,8-8.57,13.41-11.13,1.53,0,2.79-1.13,4.34-1,.59-.09,1.26,0,1.56-.74l.75-.6c1.68.78,2.05-.92,3-1.55l1.4-1.2C55.63,52.52,56.37,51.43,57.51,51.07Z"/><path class="cls-49" d="M43.86,58.27C39.73,62,35.55,65.6,31.48,69.36c-1,.93-2.81,2.09-1.36,3.68,1.3,1.43,2.71,0,4-.7,4.1-2.21,7.17-5.94,11.55-7.7-4.67,5.48-11,8.84-16.87,12.65-2.61,1.68-5.95,2.11-8.22,4.55a1.61,1.61,0,0,1-2.41.26,1.7,1.7,0,0,1,0-2.44C24.72,71.33,33.07,64.89,40.8,57.8c.47-.43,1.44-.32,2.18-.45l.87,0C44.47,57.67,44.47,58,43.86,58.27Z"/><path class="cls-50" d="M54.3,59.29,58.52,56l1.61-.7c0,.42,0,.84.07,1.26-.09,3.65-3.46,4.78-5.52,6.76-2.49,2.41-3.65,4.61-1.74,7.77l1.9,2.35c-3.61.26-5.05-2.35-6.5-4.94a2.33,2.33,0,0,1,.15-3l3.93-4.33C52.45,59.86,53.3,59.5,54.3,59.29Z"/><path class="cls-51" d="M46.64,68.32a96.9,96.9,0,0,1-12.8,10.87c-.39-.27-.94-.37-1-1l13-10.75A1.38,1.38,0,0,1,46.64,68.32Z"/><path class="cls-49" d="M54.3,59.29l-1.88,1.8c-2.42-.16-3.57,2.47-5.84,2.65C48.29,60.75,51,59.56,54.3,59.29Z"/><path class="cls-52" d="M32.83,78.22l1,1L30.23,82,29.28,81A8.44,8.44,0,0,1,32.83,78.22Z"/><path class="cls-53" d="M46.64,68.32c-.29-.28-.57-.57-.85-.85l2.69-2c0,1-.09,2-.14,3Z"/><path class="cls-54" d="M40.25,48.29l2.65-2c0,.65,0,1.31.05,2,.81.92.8,2.15,1.26,3.2a11.46,11.46,0,0,1,.64,2.29,9.42,9.42,0,0,1-.23,1.2,1.87,1.87,0,0,1-.86.83l-2-1.15-1.46-2.8A2.46,2.46,0,0,1,40.25,48.29Z"/><path class="cls-55" d="M43.76,55.81l.13-1.24a1.27,1.27,0,0,1,1.78.07l2.77,1.61c-1.11,1.3-2.38,1.15-3.71.41Z"/><path class="cls-56" d="M44.73,56.66l3.71-.41a1.67,1.67,0,0,0,.85-.13l-.87,1.29a3.69,3.69,0,0,1-3.69-.06Q44.72,57,44.73,56.66Z"/><path class="cls-3" d="M44.73,57.35l3.69.06c-1.36,1.12-3,.82-4.56.86,0-.3,0-.6,0-.9Z"/><path class="cls-57" d="M54.76,73.78l6.42-3.47c1,4.14-1.36,4.69-4.6,4.3l-1.83,0C54.75,74.32,54.76,74.05,54.76,73.78Z"/><path class="cls-58" d="M56.58,74.61c1.4-1.58,4.13-1.72,4.6-4.3L62.63,69c4.25.55,2.71,3.28,2.13,5.65A76.61,76.61,0,0,1,53.87,85.57c-2,1-4,2-6,3-1.54.69-3.46,1.35-4.61-.14-1.34-1.73.09-3.35,1.25-4.76C47.77,79.63,50.72,75.16,56.58,74.61Z"/><path class="cls-59" d="M32.64,50c2.2.11,3.31-1.86,5-2.66,1.13-.53,2.16-.92,1.7,1.07.06,2.14-1.51,2.84-3.12,3.49l-.57.85c-2.91,2-4.83,5.18-8,6.95-2.75,1.71-4.58,4.93-8.3,5l-2.85-.07c-.59-1.9,1.12-2.69,1.87-4,2.55-1.8,5.17-3.52,7.79-5.22,1.31-.84,1-1.54.14-2.4a1,1,0,0,1,.19-1.14l1-.64C28.81,49.27,30.54,48.9,32.64,50Z"/><path class="cls-60" d="M32.64,50l-5.13,1.33-2.76-2.2c0-.29,0-.57.07-.85,2.9-1.35,5.95-1.29,9-.88l1.2.11Z"/><path class="cls-61" d="M17.48,56.46l2.73-3.64c1.22-1.8,2.7-2.33,4.56-.92a11.45,11.45,0,0,1-2.49,3.74,5.1,5.1,0,0,1-3,1.62A2.1,2.1,0,0,1,17.48,56.46Z"/><path class="cls-62" d="M21.11,54.64c.32-2.12,1.77-2.73,3.66-2.74l1.79,0,0,.88C25.29,55,23.53,55.82,21.11,54.64Z"/><path class="cls-63" d="M19.42,64.71l8-5.54c1-.38,1.11.08.9.89-3.36,2.68-6.74,5.36-10.09,8.06-1.05.85-2,1.85-3.55,1.08Z"/><path class="cls-64" d="M28.36,60.06l-.9-.89c2.93-1.91,4.73-5.27,8.22-6.46A27.66,27.66,0,0,1,28.36,60.06Z"/><path class="cls-65" d="M4.71,77.36a17,17,0,0,1,6.37-4.64c.27.2.37.4.28.59s-.19.3-.28.3L5.65,78.3A1,1,0,0,1,4.71,77.36Z"/><path class="cls-66" d="M23.06,62.39l.52.5c-1,.75-1.72,1.78-3,2C21,63.65,22.13,63.11,23.06,62.39Z"/><path class="cls-67" d="M36.25,51.86l3.12-3.49c.29,0,.59-.06.88-.08,0,1.19,0,2.38.07,3.57C39,50.88,37.61,52.7,36.25,51.86Z"/><path class="cls-68" d="M11.08,73.61c0-.29,0-.59,0-.89a10.43,10.43,0,0,1,3.68-3.55C14.5,71.45,12.94,72.65,11.08,73.61Z"/><path class="cls-69" d="M79.35,29.17l-.86.08a28.21,28.21,0,0,1,2.68-11l-.06,4.52A15.78,15.78,0,0,0,79.35,29.17Z"/><path class="cls-69" d="M78.49,29.19c-.1,1.2-.19,2.4-.29,3.6l-1.53,2.89A9,9,0,0,1,78.49,29.19Z"/><path class="cls-62" d="M17.48,56.46H19.3c1.16,1.83-.46,3.65,0,5.47l-2.73,2.72h0c-1.12,1.87-3,2.48-4.93,3.18C8,67.55,8.81,65.75,10.2,63.74A35.38,35.38,0,0,1,17.48,56.46Z"/><path class="cls-61" d="M10.2,63.74c-.34,1.68-.7,3.37,1.81,3.63.24.2.31.4.24.6s-.15.31-.23.31l-1.8.92c-3.08.57-4.78,4.11-9.23,3.87A52.27,52.27,0,0,1,10.2,63.74Z"/><path class="cls-70" d="M43.78,53.77,42.93,52c-1-1.56.34-2.54.91-3.72a15.2,15.2,0,0,1,4.56-4.51c1.27-.84,2.41-1.86,3.63-2.78l6.34-4.51c1.42-.49,2.92-2.87,4.17.2-.44,1.42.32,3-.49,4.36h0c-1.08,1.09-1.14,2.93-2.72,3.64a3.24,3.24,0,0,1-2.59-2,15.26,15.26,0,0,0-10.1,9.88,2.88,2.88,0,0,1-.55,1.14C45.34,54.09,44.6,54.5,43.78,53.77Z"/><path class="cls-71" d="M62.05,37.37c-.69-2.41-2.38-.88-3.68-.94,1.82-2.21,3.64-2.47,5.46,0l-.89.93C62.65,37.8,62.35,37.82,62.05,37.37Z"/><path class="cls-71" d="M52,40.94a4.66,4.66,0,0,1-3.63,2.78A5.23,5.23,0,0,1,52,40.94Z"/><path class="cls-71" d="M43.84,48.23c-.3,1.24-.61,2.48-.91,3.72-1.14-1.23-.56-2.44,0-3.66C43.25,48.28,43.54,48.25,43.84,48.23Z"/><path class="cls-12" d="M12,68.28c0-.3,0-.61,0-.91l4.55-2.73C16.12,67.2,14.13,67.81,12,68.28Z"/><path class="cls-72" d="M33.85,47.36c-2.78,2.72-6,1.38-9,.88,0-.58-.07-1.16-.1-1.74-1-1.57.4-2.54.91-3.74l1-1.76,3.57-2.76c1.71-1,2.92-2.58,4.57-3.63h0c2.11-1,4.19-2.09,6.33-3.05.77-.35,1.83-.76,2.17.5.22.79-.58,1.25-1.2,1.66-4.62,1.58-7.32,5.68-10.55,8,3.08-1.8,5.08-6.19,9.65-7.08,2,3.57-.45,5.9-2.44,8.22A56,56,0,0,1,33.85,47.36Z"/><path class="cls-73" d="M41.14,34.64c-5,3.46-8.18,9.13-13.9,12.28.36-5,8.81-12.25,14.8-13.2Z"/><path class="cls-15" d="M34.75,34.61c-1.11,1.73-2.33,3.32-4.57,3.63C31.34,36.58,32.57,35,34.75,34.61Z"/><path class="cls-74" d="M57.51,41.91l1.82,2.73c-3.23,3.53-5.84,7.8-10.92,9.1-1,0-2,0-2.74-.91h0C48.49,48,51.88,43.72,57.51,41.91Z"/><path class="cls-71" d="M45.67,52.83a3.6,3.6,0,0,1,2.74.91,3.71,3.71,0,0,1-2.74.9l-1.78-.07c0-.27-.07-.54-.11-.8Z"/><path class="cls-75" d="M53,54c-.52,1.42-1.05,2.8-3,1.55Z"/><path class="cls-76" d="M57.51,51.07a3.43,3.43,0,0,1-3.08,1.7l3-2.75Z"/><path class="cls-77" d="M52.94,71.05c-3.27-1.64-3.47-4-1.16-6.48,2.65-2.83,5.6-5.38,8.42-8l0,0c.91.4,2,.25,2.85.79,1.39.84,3.16.76,4.44,1.84A15.53,15.53,0,0,1,52.94,71.05Z"/><path class="cls-78" d="M67.51,59.18l-5.44-.91c-.06-1.51.71-1.48,1.76-1l2.81.07.91,1C67.53,58.64,67.52,58.91,67.51,59.18Z"/><path class="cls-79" d="M63.83,57.32l-1.76,1-1.85-1.73,4.2-2.39C65.18,55.46,63.67,56.23,63.83,57.32Z"/><path class="cls-15" d="M25.63,42.76c-.3,1.25-.61,2.5-.91,3.74C23.42,44.86,24.18,43.73,25.63,42.76Z"/><path class="cls-17" d="M62.05,37.37l.89,0c0,1.29.08,2.59-.89,3.64C61.88,39.78,61.43,38.58,62.05,37.37Z"/><path class="cls-80" d="M19.3,61.92c-1,0-2.2.85-2.95-.29s.3-1.92.95-2.71,1.33-1.64,2-2.47l1.81-1.81a7.66,7.66,0,0,1,5.48-1.83l6.26-.62A40.6,40.6,0,0,1,19.3,61.92Z"/><path class="cls-81" d="M57.51,41.91,45.68,52.82c-1.54-1.85-.09-3,1-4.18a51.63,51.63,0,0,1,13.1-10.59C59.53,39.91,58.42,40.86,57.51,41.91Z"/><path class="cls-82" d="M61.79,60.58a24.34,24.34,0,0,1-9,8.85C54.47,63.93,58.06,62.17,61.79,60.58Z"/></g><path class="cls-15" d="M79.94,2.86a6.69,6.69,0,0,1,6.68,6.68V79.72a6.68,6.68,0,0,1-6.68,6.67H9.76a6.68,6.68,0,0,1-6.68-6.67V9.54A6.69,6.69,0,0,1,9.76,2.86H79.94m0-3H9.76A9.69,9.69,0,0,0,.08,9.54V79.72a9.68,9.68,0,0,0,9.68,9.67H79.94a9.68,9.68,0,0,0,9.68-9.67V9.54A9.69,9.69,0,0,0,79.94-.14Z"/></svg>