<svg xmlns="http://www.w3.org/2000/svg" viewBox="0 0 24 24"><defs><style>.cls-1{fill:#000000;fill-rule:evenodd;}</style></defs><title>globe2</title><g id="Layer_2" data-name="Layer 2"><g id="Layer_1-2" data-name="Layer 1"><path d="M12,0A12,12,0,1,0,24,12,12,12,0,0,0,12,0Zm8.3,7.2H16.8a17.51,17.51,0,0,0-1.7-4.3A9.64,9.64,0,0,1,20.3,7.2ZM12,2.4a15.25,15.25,0,0,1,2.3,4.8H9.7A17.67,17.67,0,0,1,12,2.4Zm-9.3,12a9.75,9.75,0,0,1,0-4.8H6.8A19.42,19.42,0,0,0,6.6,12a19.42,19.42,0,0,0,.2,2.4Zm1,2.4H7.2a17.51,17.51,0,0,0,1.7,4.3A9.64,9.64,0,0,1,3.7,16.8ZM7.2,7.2H3.7A10,10,0,0,1,8.9,2.9,22.63,22.63,0,0,0,7.2,7.2ZM12,21.6a15.25,15.25,0,0,1-2.3-4.8h4.6A17.67,17.67,0,0,1,12,21.6Zm2.8-7.2H9.2A19.42,19.42,0,0,1,9,12a19.42,19.42,0,0,1,.2-2.4h5.6A19.42,19.42,0,0,1,15,12,19.42,19.42,0,0,1,14.8,14.4Zm.3,6.7a20.28,20.28,0,0,0,1.7-4.3h3.5A9.64,9.64,0,0,1,15.1,21.1Zm2.1-6.7a19.42,19.42,0,0,0,.2-2.4,19.42,19.42,0,0,0-.2-2.4h4.1a9.75,9.75,0,0,1,0,4.8Z"/></g></g></svg>