<svg xmlns="http://www.w3.org/2000/svg" viewBox="0 0 106.9 53.81"><defs><style>.cls-1{fill:#1f2325;}</style></defs><title>comfortaa</title><g id="Layer_2" data-name="Layer 2"><g id="Layer_1-2" data-name="Layer 1"><path class="cls-1" d="M3.1,8.65a2.88,2.88,0,0,1-1.52-.41A2.85,2.85,0,0,1,.52,7.15,3.11,3.11,0,0,1,.13,5.59,3.09,3.09,0,0,1,.53,4a3,3,0,0,1,1.1-1.09,3,3,0,0,1,1.56-.4,3,3,0,0,1,1.55.4A2.92,2.92,0,0,1,5.83,4a3.21,3.21,0,0,1,.42,1.58l-.35.26a2.87,2.87,0,0,1-.36,1.43,2.77,2.77,0,0,1-1,1A2.85,2.85,0,0,1,3.1,8.65Zm.09-.77a2.21,2.21,0,0,0,1.14-.3,2.22,2.22,0,0,0,.79-.82,2.53,2.53,0,0,0,0-2.35,2.3,2.3,0,0,0-.79-.82,2.21,2.21,0,0,0-1.14-.3,2.21,2.21,0,0,0-1.14.3,2.39,2.39,0,0,0-.8,3.17,2.25,2.25,0,0,0,.8.82A2.21,2.21,0,0,0,3.19,7.88Zm2.63.71a.45.45,0,0,1-.31-.11.41.41,0,0,1-.12-.31V6.29l.21-.87.65.17V8.17a.39.39,0,0,1-.13.31A.44.44,0,0,1,5.82,8.59Z"/><path class="cls-1" d="M10.94,8.65a3.07,3.07,0,0,1-1.54-.4A3,3,0,0,1,8.31,7.17,3,3,0,0,1,7.9,5.62V.43A.39.39,0,0,1,8,.12.42.42,0,0,1,8.33,0a.41.41,0,0,1,.3.12.39.39,0,0,1,.11.31V3.66A2.79,2.79,0,0,1,11,2.52a2.88,2.88,0,0,1,1.52.4A2.92,2.92,0,0,1,13.62,4,3.18,3.18,0,0,1,14,5.58a3.06,3.06,0,0,1-.4,1.57,2.92,2.92,0,0,1-1.09,1.09A3.1,3.1,0,0,1,10.94,8.65Zm0-.77a2.22,2.22,0,0,0,1.15-.31,2.08,2.08,0,0,0,.79-.82,2.26,2.26,0,0,0,.3-1.17,2.26,2.26,0,0,0-.3-1.17,2,2,0,0,0-.79-.82,2.32,2.32,0,0,0-2.28,0A2,2,0,0,0,9,4.41a2.36,2.36,0,0,0-.29,1.17A2.36,2.36,0,0,0,9,6.75a2.08,2.08,0,0,0,.79.82A2.2,2.2,0,0,0,10.94,7.88Z"/><path class="cls-1" d="M18.36,8.65a3,3,0,0,1-1.55-.41,2.87,2.87,0,0,1-1.07-1.09,3.11,3.11,0,0,1-.39-1.56A3.3,3.3,0,0,1,15.73,4a2.89,2.89,0,0,1,1-1.09,2.76,2.76,0,0,1,1.5-.4,3,3,0,0,1,1.23.26,2.9,2.9,0,0,1,1,.79.33.33,0,0,1,.09.29.45.45,0,0,1-.19.25.32.32,0,0,1-.27.06A.41.41,0,0,1,19.85,4a2,2,0,0,0-1.6-.72,2,2,0,0,0-1.09.3,2,2,0,0,0-.72.81,2.51,2.51,0,0,0-.26,1.19,2.46,2.46,0,0,0,.27,1.17,2.1,2.1,0,0,0,.77.82,2.16,2.16,0,0,0,1.14.3,2.45,2.45,0,0,0,.78-.12,1.92,1.92,0,0,0,.64-.36.5.5,0,0,1,.27-.12.32.32,0,0,1,.26.09.41.41,0,0,1,.15.28.29.29,0,0,1-.1.26A2.86,2.86,0,0,1,18.36,8.65Z"/><path class="cls-1" d="M25,8.65a3,3,0,0,1-1.56-.41,2.88,2.88,0,0,1-1.1-1.09,3.06,3.06,0,0,1-.4-1.57A3.18,3.18,0,0,1,22.3,4a2.92,2.92,0,0,1,1.06-1.09,2.88,2.88,0,0,1,1.52-.4,2.8,2.8,0,0,1,1.33.31,2.68,2.68,0,0,1,1,.83V.43a.4.4,0,0,1,.12-.31A.41.41,0,0,1,27.6,0a.41.41,0,0,1,.3.12A.37.37,0,0,1,28,.43V5.62a3.24,3.24,0,0,1-.43,1.55,3,3,0,0,1-1.09,1.08A3.07,3.07,0,0,1,25,8.65Zm0-.77A2.18,2.18,0,0,0,26.9,6.75a2.36,2.36,0,0,0,.29-1.17,2.36,2.36,0,0,0-.29-1.17,2.15,2.15,0,0,0-.79-.82,2.32,2.32,0,0,0-2.28,0,2.17,2.17,0,0,0-.8.82,2.26,2.26,0,0,0-.3,1.17,2.28,2.28,0,0,0,1.1,2A2.21,2.21,0,0,0,25,7.88Z"/><path class="cls-1" d="M32.73,8.65a3.16,3.16,0,0,1-1.58-.39,2.87,2.87,0,0,1-1.07-1.09,3.16,3.16,0,0,1-.39-1.58A3.39,3.39,0,0,1,30.05,4a2.79,2.79,0,0,1,1-1.08,3,3,0,0,1,3,0A2.57,2.57,0,0,1,35,4a3.31,3.31,0,0,1,.34,1.53.38.38,0,0,1-.11.28.39.39,0,0,1-.29.1H30.26v-.7H35l-.47.34a2.58,2.58,0,0,0-.23-1.14,1.86,1.86,0,0,0-.69-.8,1.93,1.93,0,0,0-1.06-.28,2.07,2.07,0,0,0-1.1.29,2,2,0,0,0-.73.82,2.58,2.58,0,0,0-.26,1.2,2.44,2.44,0,0,0,.29,1.19,2.14,2.14,0,0,0,.8.81,2.2,2.2,0,0,0,1.16.3,2.5,2.5,0,0,0,.8-.14,1.84,1.84,0,0,0,.64-.35.48.48,0,0,1,.28-.1.34.34,0,0,1,.26.08.38.38,0,0,1,.15.29.29.29,0,0,1-.13.26,2.79,2.79,0,0,1-.92.51A3,3,0,0,1,32.73,8.65Z"/><path class="cls-1" d="M36.4,3.53a.36.36,0,0,1-.28-.1A.36.36,0,0,1,36,3.17a.37.37,0,0,1,.11-.27.36.36,0,0,1,.28-.11h2.87a.39.39,0,0,1,.28.11.36.36,0,0,1,.1.27.35.35,0,0,1-.1.26.39.39,0,0,1-.28.1Zm1.11,5.06a.4.4,0,0,1-.41-.43V2.58a3.35,3.35,0,0,1,.26-1.35,2.11,2.11,0,0,1,.78-.91A2.42,2.42,0,0,1,39.41,0a.47.47,0,0,1,.31.11.34.34,0,0,1,.12.27.36.36,0,0,1-.12.28.47.47,0,0,1-.31.11,1.42,1.42,0,0,0-.82.23,1.25,1.25,0,0,0-.48.62,2.43,2.43,0,0,0-.16.92V8.16a.44.44,0,0,1-.12.32A.46.46,0,0,1,37.51,8.59Z"/><path class="cls-1" d="M43.22,8.65a3,3,0,0,1-1.54-.39,2.75,2.75,0,0,1-1-1.09,3.16,3.16,0,0,1-.38-1.58A3.21,3.21,0,0,1,40.64,4a2.9,2.9,0,0,1,1.09-1.08,3.38,3.38,0,0,1,3.15,0A2.8,2.8,0,0,1,46,4a3.33,3.33,0,0,1,.4,1.6l-.49.26a3.1,3.1,0,0,1-.34,1.45,2.56,2.56,0,0,1-.94,1A2.62,2.62,0,0,1,43.22,8.65ZM43.33,11a3.38,3.38,0,0,1-1.53-.33,3,3,0,0,1-1.09-.88.38.38,0,0,1-.11-.29.35.35,0,0,1,.16-.25.41.41,0,0,1,.32-.07.43.43,0,0,1,.28.17,2.28,2.28,0,0,0,.82.63,2.51,2.51,0,0,0,1.16.25,2.08,2.08,0,0,0,1.89-1.14,2.55,2.55,0,0,0,.3-1.26V6.13l.31-.64.52.1V7.83A3.24,3.24,0,0,1,46,9.43a3,3,0,0,1-1.08,1.12A2.94,2.94,0,0,1,43.33,11Zm0-3.09a2.17,2.17,0,0,0,1.15-.3,2,2,0,0,0,.79-.8,2.44,2.44,0,0,0,.29-1.19,2.48,2.48,0,0,0-.29-1.2,2.05,2.05,0,0,0-.79-.81,2.26,2.26,0,0,0-1.15-.29,2.31,2.31,0,0,0-1.15.29,2.05,2.05,0,0,0-.79.81,2.48,2.48,0,0,0-.29,1.2,2.44,2.44,0,0,0,.29,1.19,2,2,0,0,0,.79.8A2.22,2.22,0,0,0,43.3,7.88Z"/><path class="cls-1" d="M48.44,6.14A.41.41,0,0,1,48.13,6,.43.43,0,0,1,48,5.71V.43a.4.4,0,0,1,.12-.31A.41.41,0,0,1,48.44,0a.38.38,0,0,1,.3.12.4.4,0,0,1,.12.31V5.71a.43.43,0,0,1-.12.31A.38.38,0,0,1,48.44,6.14Zm0,2.45a.45.45,0,0,1-.31-.11A.41.41,0,0,1,48,8.17V3a.41.41,0,0,1,.43-.43.38.38,0,0,1,.3.12.41.41,0,0,1,.12.31V8.17a.41.41,0,0,1-.12.31A.41.41,0,0,1,48.44,8.59Zm4.73,0a.43.43,0,0,1-.31-.12.41.41,0,0,1-.12-.3V5.31a2.11,2.11,0,0,0-.26-1.12,1.65,1.65,0,0,0-.7-.66,2.39,2.39,0,0,0-2,0,1.77,1.77,0,0,0-.69.57,1.4,1.4,0,0,0-.25.83h-.6a2.26,2.26,0,0,1,.37-1.24,2.56,2.56,0,0,1,.93-.86,2.69,2.69,0,0,1,1.3-.31,3,3,0,0,1,1.4.32,2.46,2.46,0,0,1,1,.95,3,3,0,0,1,.36,1.53V8.17a.41.41,0,0,1-.42.42Z"/><path class="cls-1" d="M56.05,1.43a.54.54,0,0,1-.41-.18.57.57,0,0,1-.18-.43.55.55,0,0,1,.18-.43.63.63,0,0,1,.84,0,.55.55,0,0,1,.18.43.57.57,0,0,1-.18.43A.57.57,0,0,1,56.05,1.43Zm0,7.16a.45.45,0,0,1-.31-.11.43.43,0,0,1-.11-.32V3a.41.41,0,0,1,.11-.31.46.46,0,0,1,.62,0,.45.45,0,0,1,.11.31V8.16a.48.48,0,0,1-.11.32A.45.45,0,0,1,56.06,8.59Z"/><path class="cls-1" d="M57,11.17a.41.41,0,0,1-.3-.12.43.43,0,0,1,0-.62.41.41,0,0,1,.3-.12,1.8,1.8,0,0,0,.89-.22,1.73,1.73,0,0,0,.62-.61,1.7,1.7,0,0,0,.22-.89V3a.41.41,0,0,1,.12-.31.38.38,0,0,1,.3-.12.43.43,0,0,1,.31.12.41.41,0,0,1,.12.31V8.59a2.65,2.65,0,0,1-.33,1.33,2.37,2.37,0,0,1-.92.91A2.63,2.63,0,0,1,57,11.17Zm2.14-9.74a.58.58,0,0,1-.42-.18.57.57,0,0,1-.18-.43.55.55,0,0,1,.18-.43.64.64,0,0,1,.43-.16.59.59,0,0,1,.41.16.55.55,0,0,1,.18.43.6.6,0,0,1-.17.43A.58.58,0,0,1,59.18,1.43Z"/><path class="cls-1" d="M62.19,8.59a.44.44,0,0,1-.3-.11.41.41,0,0,1-.12-.31V.42a.38.38,0,0,1,.12-.3.41.41,0,0,1,.3-.12.38.38,0,0,1,.3.12.38.38,0,0,1,.12.3V8.17a.41.41,0,0,1-.12.31A.41.41,0,0,1,62.19,8.59Zm.28-2L62,6l3.76-3.4A.41.41,0,0,1,66,2.5a.4.4,0,0,1,.26.14.41.41,0,0,1,.12.28.36.36,0,0,1-.14.26Zm3.79,2a.38.38,0,0,1-.3.1.35.35,0,0,1-.26-.16l-2.45-3,.59-.53L66.32,8a.42.42,0,0,1,.1.28A.39.39,0,0,1,66.26,8.54Z"/><path class="cls-1" d="M69.36,8.59a1.33,1.33,0,0,1-.78-.24A1.64,1.64,0,0,1,68,7.68a2.4,2.4,0,0,1-.2-1V.42A.38.38,0,0,1,68,.12a.41.41,0,0,1,.3-.12.41.41,0,0,1,.31.12.41.41,0,0,1,.11.3V6.69a1.49,1.49,0,0,0,.19.77.57.57,0,0,0,.49.29h.28a.31.31,0,0,1,.26.12.44.44,0,0,1,.1.3.37.37,0,0,1-.14.31.56.56,0,0,1-.35.11Z"/><path class="cls-1" d="M71.6,8.59a.46.46,0,0,1-.32-.11.45.45,0,0,1-.11-.31V3a.49.49,0,0,1,.11-.31.42.42,0,0,1,.32-.12.41.41,0,0,1,.3.12A.44.44,0,0,1,72,3V8.17a.41.41,0,0,1-.11.31A.44.44,0,0,1,71.6,8.59Zm3.86,0a.45.45,0,0,1-.31-.11A.41.41,0,0,1,75,8.17V5a1.77,1.77,0,0,0-.41-1.23,1.32,1.32,0,0,0-1-.46,1.52,1.52,0,0,0-1.13.45A1.58,1.58,0,0,0,72,4.92h-.6a2.78,2.78,0,0,1,.31-1.25,2.19,2.19,0,0,1,.8-.85,2.12,2.12,0,0,1,1.14-.31,2.08,2.08,0,0,1,1.15.31,2,2,0,0,1,.78.87A2.84,2.84,0,0,1,75.88,5V8.17a.41.41,0,0,1-.12.31A.44.44,0,0,1,75.46,8.59Zm3.84,0A.45.45,0,0,1,79,8.48a.41.41,0,0,1-.12-.31V5a1.77,1.77,0,0,0-.41-1.23,1.32,1.32,0,0,0-1-.46,1.46,1.46,0,0,0-1.12.46A1.63,1.63,0,0,0,75.88,5h-.76a2.67,2.67,0,0,1,.31-1.29,2.16,2.16,0,0,1,.85-.87,2.38,2.38,0,0,1,1.22-.31,2.08,2.08,0,0,1,1.15.31,2,2,0,0,1,.78.87A2.84,2.84,0,0,1,79.71,5V8.17a.41.41,0,0,1-.11.31A.44.44,0,0,1,79.3,8.59Z"/><path class="cls-1" d="M84.32,8.65a3.16,3.16,0,0,1-1.57-.4,2.92,2.92,0,0,1-1.09-1.09,3.16,3.16,0,0,1-.4-1.57A3.21,3.21,0,0,1,81.66,4a2.9,2.9,0,0,1,1.09-1.08,3.28,3.28,0,0,1,3.14,0A2.8,2.8,0,0,1,87,4a3.21,3.21,0,0,1,.41,1.59A3.06,3.06,0,0,1,87,7.16a2.92,2.92,0,0,1-1.09,1.09A3.13,3.13,0,0,1,84.32,8.65Zm0-.77a2.22,2.22,0,0,0,1.15-.3,2.15,2.15,0,0,0,.79-.82,2.36,2.36,0,0,0,.29-1.17,2.4,2.4,0,0,0-.29-1.18,2.08,2.08,0,0,0-.79-.82,2.34,2.34,0,0,0-2.29,0,2.1,2.1,0,0,0-.8.82,2.4,2.4,0,0,0-.29,1.18,2.36,2.36,0,0,0,.29,1.17,2.17,2.17,0,0,0,.8.82A2.21,2.21,0,0,0,84.32,7.88Z"/><path class="cls-1" d="M89.46,11.17a.4.4,0,0,1-.31-.12.41.41,0,0,1-.12-.31V5.54A3.19,3.19,0,0,1,89.44,4a2.9,2.9,0,0,1,1.09-1.08A3.1,3.1,0,0,1,94.75,4a3.2,3.2,0,0,1,.4,1.58,3.11,3.11,0,0,1-.39,1.56,2.92,2.92,0,0,1-2.58,1.5,2.85,2.85,0,0,1-1.34-.32,2.59,2.59,0,0,1-1-.83v3.24a.41.41,0,0,1-.12.31A.38.38,0,0,1,89.46,11.17Zm2.62-3.29a2.21,2.21,0,0,0,1.14-.3,2.1,2.1,0,0,0,.8-.82,2.53,2.53,0,0,0,0-2.35,2.17,2.17,0,0,0-.8-.82,2.21,2.21,0,0,0-1.14-.3,2.15,2.15,0,0,0-1.13.3,2.17,2.17,0,0,0-.8.82,2.42,2.42,0,0,0-.28,1.18,2.41,2.41,0,0,0,.28,1.17,2.1,2.1,0,0,0,.8.82A2.15,2.15,0,0,0,92.08,7.88Z"/><path class="cls-1" d="M5.82,22.17a.41.41,0,0,1-.43-.43V18.5a2.59,2.59,0,0,1-1,.83,2.81,2.81,0,0,1-1.33.32,2.88,2.88,0,0,1-1.52-.41A2.85,2.85,0,0,1,.52,18.15,3.32,3.32,0,0,1,.53,15a3,3,0,0,1,1.1-1.09,3,3,0,0,1,1.56-.4,3,3,0,0,1,1.54.4A2.9,2.9,0,0,1,5.82,15a3.2,3.2,0,0,1,.43,1.54v5.2a.39.39,0,0,1-.13.31A.41.41,0,0,1,5.82,22.17ZM3.19,18.88a2.21,2.21,0,0,0,1.14-.3,2.22,2.22,0,0,0,.79-.82,2.53,2.53,0,0,0,0-2.35,2.3,2.3,0,0,0-.79-.82,2.21,2.21,0,0,0-1.14-.3,2.21,2.21,0,0,0-1.14.3,2.39,2.39,0,0,0-.8,3.17,2.25,2.25,0,0,0,.8.82A2.21,2.21,0,0,0,3.19,18.88Z"/><path class="cls-1" d="M8.64,19.59a.41.41,0,0,1-.3-.11.39.39,0,0,1-.11-.31V14a.38.38,0,0,1,.41-.42.42.42,0,0,1,.31.11.45.45,0,0,1,.11.31v5.18a.43.43,0,0,1-.11.31A.42.42,0,0,1,8.64,19.59Zm-.06-3.71a2.63,2.63,0,0,1,.35-1.22,2.36,2.36,0,0,1,.85-.84,2.22,2.22,0,0,1,1.16-.31,1.78,1.78,0,0,1,.78.14.37.37,0,0,1,.06.64.4.4,0,0,1-.25,0l-.33,0a2.42,2.42,0,0,0-1.1.13,1.65,1.65,0,0,0-.76.55,1.5,1.5,0,0,0-.28.89Z"/><path class="cls-1" d="M15.36,19.65a4.05,4.05,0,0,1-1.28-.22,2.51,2.51,0,0,1-1-.66.38.38,0,0,1-.1-.3.46.46,0,0,1,.17-.29.48.48,0,0,1,.32-.09.46.46,0,0,1,.27.15,1.77,1.77,0,0,0,.7.47,2.69,2.69,0,0,0,1,.17,2,2,0,0,0,1.18-.28.9.9,0,0,0,.38-.68.79.79,0,0,0-.38-.66,3.31,3.31,0,0,0-1.23-.4,3.31,3.31,0,0,1-1.63-.61,1.37,1.37,0,0,1-.52-1.05,1.44,1.44,0,0,1,.3-.93,1.76,1.76,0,0,1,.79-.56,3,3,0,0,1,1.09-.19,2.91,2.91,0,0,1,1.27.25,2.38,2.38,0,0,1,.87.68.38.38,0,0,1,.08.3.33.33,0,0,1-.17.25.39.39,0,0,1-.3.05.43.43,0,0,1-.29-.16,1.77,1.77,0,0,0-.64-.46,2.21,2.21,0,0,0-.84-.15,1.66,1.66,0,0,0-1,.25.72.72,0,0,0-.36.62.74.74,0,0,0,.14.44,1.21,1.21,0,0,0,.47.33,4.84,4.84,0,0,0,.94.24,4.19,4.19,0,0,1,1.3.39,1.73,1.73,0,0,1,.69.6,1.57,1.57,0,0,1,.2.76,1.46,1.46,0,0,1-.3.91,2,2,0,0,1-.84.61A3.29,3.29,0,0,1,15.36,19.65Z"/><path class="cls-1" d="M18.81,14.53a.4.4,0,0,1-.28-.1.36.36,0,0,1-.11-.26.37.37,0,0,1,.11-.27.41.41,0,0,1,.28-.11h2.8a.41.41,0,0,1,.28.11.37.37,0,0,1,.11.27.36.36,0,0,1-.11.26.4.4,0,0,1-.28.1Zm2.74,5.06a2,2,0,0,1-1-.27,2,2,0,0,1-.72-.76,2.18,2.18,0,0,1-.27-1.09V12.09a.41.41,0,0,1,.12-.31.41.41,0,0,1,.3-.12.43.43,0,0,1,.31.12.41.41,0,0,1,.12.31v5.38a1.31,1.31,0,0,0,.33.92,1.12,1.12,0,0,0,.85.35h.29a.37.37,0,0,1,.29.12.49.49,0,0,1,.11.31.39.39,0,0,1-.13.31.52.52,0,0,1-.33.11Z"/><path class="cls-1" d="M26.23,19.66a2.88,2.88,0,0,1-1.39-.33,2.3,2.3,0,0,1-1-.95,3,3,0,0,1-.36-1.53V14a.39.39,0,0,1,.13-.3.38.38,0,0,1,.29-.12.41.41,0,0,1,.31.12.42.42,0,0,1,.12.3v2.86A2.18,2.18,0,0,0,24.61,18a1.59,1.59,0,0,0,.7.66,2.23,2.23,0,0,0,1,.22,2.34,2.34,0,0,0,1-.2,1.79,1.79,0,0,0,.69-.58,1.37,1.37,0,0,0,.25-.82h.61a2.51,2.51,0,0,1-.38,1.24,2.46,2.46,0,0,1-.93.85A2.69,2.69,0,0,1,26.23,19.66Zm2.42-.07a.44.44,0,0,1-.3-.11.44.44,0,0,1-.12-.32V14a.41.41,0,0,1,.42-.42.41.41,0,0,1,.31.12.41.41,0,0,1,.12.3v5.17a.44.44,0,0,1-.12.32A.45.45,0,0,1,28.65,19.59Z"/><path class="cls-1" d="M32.79,19.59a.42.42,0,0,1-.4-.29L30,14.12a.34.34,0,0,1,0-.28.4.4,0,0,1,.22-.22.35.35,0,0,1,.3,0,.41.41,0,0,1,.22.19L33,18.86h-.45l2.31-5.07a.34.34,0,0,1,.22-.2.44.44,0,0,1,.32,0,.41.41,0,0,1,.21.22.39.39,0,0,1,0,.28L33.21,19.3A.43.43,0,0,1,32.79,19.59Z"/><path class="cls-1" d="M38.18,19.59a.36.36,0,0,1-.25-.08.37.37,0,0,1-.16-.19l-1.71-5.15a.59.59,0,0,1,0-.44.31.31,0,0,1,.3-.16.47.47,0,0,1,.26.08.43.43,0,0,1,.16.24l1.53,4.68h-.24L39.5,13.9a.51.51,0,0,1,.15-.23.36.36,0,0,1,.27-.1.4.4,0,0,1,.27.09.48.48,0,0,1,.14.24l1.36,4.56H41.5L43,13.89a.41.41,0,0,1,.4-.32.32.32,0,0,1,.33.19.49.49,0,0,1,0,.41L42,19.32a.4.4,0,0,1-.15.19.36.36,0,0,1-.25.08.42.42,0,0,1-.26-.08.4.4,0,0,1-.15-.19l-1.38-4.6H40l-1.39,4.6a.37.37,0,0,1-.15.2A.4.4,0,0,1,38.18,19.59Z"/><path class="cls-1" d="M44.91,19.59a.38.38,0,0,1-.28-.11.36.36,0,0,1-.11-.26.45.45,0,0,1,.11-.3l2-2.53.47.63-1.92,2.44A.35.35,0,0,1,44.91,19.59Zm4.36,0a.48.48,0,0,1-.22,0,.61.61,0,0,1-.17-.16L47,17l-.33-.28-1.92-2.43a.47.47,0,0,1-.11-.3.45.45,0,0,1,.1-.27.36.36,0,0,1,.29-.12.45.45,0,0,1,.32.14l1.85,2.36.29.24,2.05,2.62a.44.44,0,0,1,.12.33.33.33,0,0,1-.14.24A.35.35,0,0,1,49.27,19.59Zm-1.79-2.86L47,16.18l1.9-2.41a.47.47,0,0,1,.17-.15.45.45,0,0,1,.19,0,.36.36,0,0,1,.29.12.44.44,0,0,1,.09.27.53.53,0,0,1-.11.31Z"/><path class="cls-1" d="M53.35,19.4a.38.38,0,0,1-.31,0,.39.39,0,0,1-.23-.21l-2.45-5.09a.36.36,0,0,1,0-.3.4.4,0,0,1,.22-.22.43.43,0,0,1,.31,0,.35.35,0,0,1,.22.21l2.41,5.09a.43.43,0,0,1,.06.3A.33.33,0,0,1,53.35,19.4Zm-1.22,2.81a.79.79,0,0,1-.2,0,.36.36,0,0,1-.21-.53l3.55-7.84a.36.36,0,0,1,.53-.19.33.33,0,0,1,.21.51L52.45,22C52.37,22.12,52.27,22.21,52.13,22.21Z"/><path class="cls-1" d="M57.19,14.34c-.26,0-.39-.12-.39-.38a.34.34,0,0,1,.39-.39h4.08a.34.34,0,0,1,.38.39.33.33,0,0,1-.38.38Zm0,5.25a.33.33,0,0,1-.38-.38c0-.26.12-.39.38-.39h4.08a.39.39,0,1,1,0,.77Zm.39-.29-.7-.37L61,13.73l.58.48Z"/><path class="cls-1" d="M.42,42.64a.38.38,0,0,1-.36-.21A.46.46,0,0,1,0,42l3.23-7.68a.44.44,0,0,1,.83,0L7.34,42a.4.4,0,0,1,0,.41.42.42,0,0,1-.36.2.4.4,0,0,1-.24-.07.42.42,0,0,1-.17-.2L3.53,35h.34L.82,42.37a.41.41,0,0,1-.16.2A.4.4,0,0,1,.42,42.64Zm.73-2,.33-.74H6l.33.74Z"/><path class="cls-1" d="M9.11,42.64a.49.49,0,0,1-.34-.12.38.38,0,0,1-.14-.31V34.48a.41.41,0,0,1,.43-.43h2.67a2.53,2.53,0,0,1,1.2.28,2.2,2.2,0,0,1,.84.76,2,2,0,0,1,.32,1.12,1.84,1.84,0,0,1-.32,1.06,2,2,0,0,1-.84.7,2.28,2.28,0,0,1,1.19.75,2.08,2.08,0,0,1,.45,1.38,2.5,2.5,0,0,1-.34,1.32,2.37,2.37,0,0,1-.94.89,2.8,2.8,0,0,1-1.37.33Zm.38-5h2.24a1.6,1.6,0,0,0,1.09-.37,1.31,1.31,0,0,0,.43-1,1.19,1.19,0,0,0-.43-1,1.75,1.75,0,0,0-1.09-.34H9.49Zm0,4.18h2.43a2,2,0,0,0,.93-.21,1.47,1.47,0,0,0,.64-.59,1.69,1.69,0,0,0,.23-.91,1.57,1.57,0,0,0-.23-.87,1.55,1.55,0,0,0-.64-.57,2.12,2.12,0,0,0-.93-.2H9.49Z"/><path class="cls-1" d="M19.92,42.75a4.22,4.22,0,0,1-1.67-.34,4.49,4.49,0,0,1-1.37-.95A4.55,4.55,0,0,1,16,40.05a4.47,4.47,0,0,1,.9-4.81,4.35,4.35,0,0,1,1.37-1,4.07,4.07,0,0,1,1.68-.34,4.18,4.18,0,0,1,1.44.23,4,4,0,0,1,1.25.74.27.27,0,0,1,.12.18.31.31,0,0,1,0,.19.26.26,0,0,1-.13.14.24.24,0,0,1-.11.13.46.46,0,0,1-.21,0,.43.43,0,0,1-.22-.1,2.93,2.93,0,0,0-.94-.56,3.47,3.47,0,0,0-1.17-.18,3.16,3.16,0,0,0-1.34.29,3.56,3.56,0,0,0-1.1.78A3.8,3.8,0,0,0,16.74,37a3.69,3.69,0,0,0,0,2.77,3.72,3.72,0,0,0,.74,1.15,3.37,3.37,0,0,0,1.1.77,3.16,3.16,0,0,0,1.34.28,3.33,3.33,0,0,0,1.14-.19,4,4,0,0,0,1-.58.33.33,0,0,1,.28-.08.38.38,0,0,1,.26.13.39.39,0,0,1,.11.28.38.38,0,0,1,0,.16.4.4,0,0,1-.09.15,3.12,3.12,0,0,1-1.25.73A4.7,4.7,0,0,1,19.92,42.75Z"/><path class="cls-1" d="M25,42.64a.41.41,0,0,1-.3-.12.44.44,0,0,1-.13-.31V34.48a.42.42,0,0,1,.13-.31.41.41,0,0,1,.3-.12h2a4.68,4.68,0,0,1,1.74.31,4,4,0,0,1,2.24,2.25,5,5,0,0,1,0,3.46A3.92,3.92,0,0,1,30,41.43a3.74,3.74,0,0,1-1.35.89,4.68,4.68,0,0,1-1.74.32Zm.43-.77h1.55a3.41,3.41,0,0,0,1.79-.46A3.26,3.26,0,0,0,30,40.16a4,4,0,0,0,0-3.64,3.19,3.19,0,0,0-1.22-1.25,3.5,3.5,0,0,0-1.79-.45H25.39Z"/><path class="cls-1" d="M33.43,42.64a.41.41,0,0,1-.3-.12.44.44,0,0,1-.13-.31V34.48a.42.42,0,0,1,.13-.31.41.41,0,0,1,.3-.12h5.16a.44.44,0,0,1,.3.11.39.39,0,0,1,.13.31.35.35,0,0,1-.13.28.41.41,0,0,1-.3.12H33.86v3h3.45a.41.41,0,0,1,.42.42.4.4,0,0,1-.12.29.41.41,0,0,1-.3.12H33.86v3.07h4.73a.41.41,0,0,1,.3.12.39.39,0,0,1,.13.29.37.37,0,0,1-.13.3.41.41,0,0,1-.3.12Z"/><path class="cls-1" d="M40.36,42.64a.41.41,0,0,1-.3-.13.42.42,0,0,1-.13-.3V34.48a.39.39,0,0,1,.13-.31.41.41,0,0,1,.3-.12h5.16a.45.45,0,0,1,.31.11.41.41,0,0,1,.12.31.38.38,0,0,1-.12.28.41.41,0,0,1-.31.12H40.79v3h3.45a.41.41,0,0,1,.3.12.42.42,0,0,1,.13.3.43.43,0,0,1-.43.41H40.79v3.47a.41.41,0,0,1-.12.3A.39.39,0,0,1,40.36,42.64Z"/><path class="cls-1" d="M51.35,42.75a4.18,4.18,0,0,1-1.66-.34,4.37,4.37,0,0,1-1.37-.95,4.58,4.58,0,0,1-.92-1.41,4.57,4.57,0,0,1,0-3.41,4.39,4.39,0,0,1,2.28-2.36,4,4,0,0,1,1.67-.34,4.11,4.11,0,0,1,1.44.23,4,4,0,0,1,1.26.74.29.29,0,0,1,.11.18.31.31,0,0,1,0,.19.27.27,0,0,1-.14.14.18.18,0,0,1-.11.13.4.4,0,0,1-.2,0,.4.4,0,0,1-.22-.1,2.93,2.93,0,0,0-.94-.56,3.53,3.53,0,0,0-1.18-.18A3.15,3.15,0,0,0,50,35a3.56,3.56,0,0,0-1.1.78A3.8,3.8,0,0,0,48.18,37a3.69,3.69,0,0,0,0,2.77,3.72,3.72,0,0,0,.74,1.15,3.37,3.37,0,0,0,1.1.77,3.14,3.14,0,0,0,1.33.28,3.34,3.34,0,0,0,1.15-.19,4,4,0,0,0,1-.58.33.33,0,0,1,.28-.08.38.38,0,0,1,.26.13.39.39,0,0,1,.11.28.7.7,0,0,1,0,.16.44.44,0,0,1-.1.15,3.16,3.16,0,0,1-1.26.73A4.61,4.61,0,0,1,51.35,42.75Zm2.82-1.26-.84-.17V39.11H51.62a.45.45,0,0,1-.31-.11.38.38,0,0,1-.12-.28.34.34,0,0,1,.12-.27.45.45,0,0,1,.31-.1h2.12a.47.47,0,0,1,.31.11.41.41,0,0,1,.12.31Z"/><path class="cls-1" d="M56.4,42.64a.41.41,0,0,1-.43-.43V34.48a.41.41,0,0,1,.12-.31.43.43,0,0,1,.31-.12.41.41,0,0,1,.43.43v3.43H62.2V34.48a.41.41,0,0,1,.43-.43.45.45,0,0,1,.31.12.41.41,0,0,1,.12.31v7.73a.43.43,0,0,1-.12.31.45.45,0,0,1-.31.12.41.41,0,0,1-.31-.12.43.43,0,0,1-.12-.31V38.68H56.83v3.53a.43.43,0,0,1-.12.31A.41.41,0,0,1,56.4,42.64Z"/><path class="cls-1" d="M65.69,42.64a.41.41,0,0,1-.31-.12.43.43,0,0,1-.12-.31V34.48a.41.41,0,0,1,.43-.43.41.41,0,0,1,.3.12.41.41,0,0,1,.12.31v7.73a.43.43,0,0,1-.12.31A.41.41,0,0,1,65.69,42.64Z"/><path class="cls-1" d="M70.29,42.75a2.51,2.51,0,0,1-2.24-1.27,2.51,2.51,0,0,1-.34-1.31.41.41,0,0,1,.12-.3.41.41,0,0,1,.31-.12.43.43,0,0,1,.31.12.41.41,0,0,1,.12.3,1.72,1.72,0,0,0,.23.9,1.75,1.75,0,0,0,2.37.63,1.7,1.7,0,0,0,.61-.64,1.76,1.76,0,0,0,.23-.89V34.48a.41.41,0,0,1,.43-.43.43.43,0,0,1,.31.12.41.41,0,0,1,.12.31v5.69a2.54,2.54,0,0,1-2.58,2.58Z"/><path class="cls-1" d="M75.5,42.64a.42.42,0,0,1-.31-.13.41.41,0,0,1-.12-.3V34.48a.41.41,0,0,1,.43-.43.42.42,0,0,1,.3.12.46.46,0,0,1,.13.31v3.74l4-4a.44.44,0,0,1,.17-.12.47.47,0,0,1,.17,0,.38.38,0,0,1,.3.12.42.42,0,0,1,.09.29.52.52,0,0,1-.13.32l-3,3,3,4.16a.46.46,0,0,1,.08.3.39.39,0,0,1-.13.27.36.36,0,0,1-.26.11.39.39,0,0,1-.36-.19l-3-4.05-1,1v2.82a.42.42,0,0,1-.13.3A.39.39,0,0,1,75.5,42.64Z"/><path class="cls-1" d="M82.7,42.64a.41.41,0,0,1-.3-.12.44.44,0,0,1-.13-.31V34.48a.46.46,0,0,1,.13-.31.43.43,0,0,1,.6,0,.42.42,0,0,1,.13.31v7.34h4.3a.41.41,0,0,1,.3.12.36.36,0,0,1,.13.29.35.35,0,0,1-.13.29.41.41,0,0,1-.3.12Z"/><path class="cls-1" d="M89.67,42.64a.42.42,0,0,1-.31-.13.41.41,0,0,1-.12-.3V34.48a.41.41,0,0,1,.12-.31.45.45,0,0,1,.31-.12.4.4,0,0,1,.38.22l3.71,7.37h-.38L97,34.27a.43.43,0,0,1,.39-.22.41.41,0,0,1,.3.12.41.41,0,0,1,.12.31v7.73a.41.41,0,0,1-.12.3.38.38,0,0,1-.3.13.39.39,0,0,1-.31-.13.38.38,0,0,1-.13-.3V35.59h.19l-3.25,6.63a.39.39,0,0,1-.37.21.41.41,0,0,1-.4-.26l-3.27-6.54.22,0v6.62a.43.43,0,0,1-.42.43Z"/><path class="cls-1" d="M100.46,42.64a.41.41,0,0,1-.31-.12.43.43,0,0,1-.12-.31V34.48a.41.41,0,0,1,.43-.43.43.43,0,0,1,.33.15L106,41.11V34.48a.39.39,0,0,1,.13-.31.41.41,0,0,1,.3-.12.45.45,0,0,1,.31.12.41.41,0,0,1,.12.31v7.73a.43.43,0,0,1-.12.31.45.45,0,0,1-.31.12.35.35,0,0,1-.17,0,.31.31,0,0,1-.15-.1l-5.27-6.91v6.62a.43.43,0,0,1-.12.31A.44.44,0,0,1,100.46,42.64Z"/><path class="cls-1" d="M4.87,53.75a4.56,4.56,0,0,1-1.76-.33,4,4,0,0,1-1.39-.93A4.12,4.12,0,0,1,.8,51.1a4.79,4.79,0,0,1-.32-1.76A4.74,4.74,0,0,1,.8,47.59a4.16,4.16,0,0,1,2.31-2.32,4.56,4.56,0,0,1,1.76-.33,4.58,4.58,0,0,1,1.75.33A4.27,4.27,0,0,1,8,46.19a4,4,0,0,1,.92,1.4,4.55,4.55,0,0,1,.33,1.75,4.6,4.6,0,0,1-.33,1.76A4,4,0,0,1,8,52.49a4.14,4.14,0,0,1-1.39.93A4.58,4.58,0,0,1,4.87,53.75Zm0-.82a3.69,3.69,0,0,0,1.41-.27,3.44,3.44,0,0,0,1.12-.75,3.58,3.58,0,0,0,.75-1.15,3.86,3.86,0,0,0,.26-1.42,3.9,3.9,0,0,0-.26-1.42,3.64,3.64,0,0,0-.75-1.14A3.32,3.32,0,0,0,6.28,46a3.69,3.69,0,0,0-1.41-.27A3.63,3.63,0,0,0,3.45,46a3.36,3.36,0,0,0-1.13.76,3.61,3.61,0,0,0-.74,1.14,3.87,3.87,0,0,0,0,2.84,3.55,3.55,0,0,0,.74,1.15,3.49,3.49,0,0,0,1.13.75A3.63,3.63,0,0,0,4.87,52.93Z"/><path class="cls-1" d="M11.46,53.64a.41.41,0,0,1-.31-.12.43.43,0,0,1-.12-.31V45.48a.41.41,0,0,1,.43-.43h2.2a3,3,0,0,1,1.44.35,2.59,2.59,0,0,1,1,1,3,3,0,0,1,.35,1.45,2.91,2.91,0,0,1-.35,1.43,2.54,2.54,0,0,1-1,1,2.85,2.85,0,0,1-1.44.36H11.89v2.61a.4.4,0,0,1-.13.31A.41.41,0,0,1,11.46,53.64Zm.43-3.86h1.77a2.09,2.09,0,0,0,1-.25,1.83,1.83,0,0,0,.69-.69,2,2,0,0,0,.24-1,2.08,2.08,0,0,0-.24-1,1.76,1.76,0,0,0-.69-.69,2,2,0,0,0-1-.26H11.89Z"/><path class="cls-1" d="M21.73,53.75A4.6,4.6,0,0,1,20,53.42a4.14,4.14,0,0,1-1.39-.93,4.09,4.09,0,0,1-.91-1.39,4.6,4.6,0,0,1-.33-1.76,4.55,4.55,0,0,1,.33-1.75,4.13,4.13,0,0,1,.91-1.4A4.27,4.27,0,0,1,20,45.27a4.83,4.83,0,0,1,3.51,0,4.13,4.13,0,0,1,2.32,2.32,4.74,4.74,0,0,1,.32,1.75,4.79,4.79,0,0,1-.32,1.76,4.27,4.27,0,0,1-.92,1.39,4.18,4.18,0,0,1-1.4.93A4.58,4.58,0,0,1,21.73,53.75Zm0-.82a3.62,3.62,0,0,0,1.41-.27,3.49,3.49,0,0,0,1.13-.75A3.55,3.55,0,0,0,25,50.76a4,4,0,0,0,0-2.84,3.61,3.61,0,0,0-.74-1.14A3.36,3.36,0,0,0,23.14,46a3.62,3.62,0,0,0-1.41-.27,3.7,3.7,0,0,0-1.42.27,3.36,3.36,0,0,0-1.13.76,3.8,3.8,0,0,0-.74,1.14,3.9,3.9,0,0,0-.26,1.42,3.86,3.86,0,0,0,.26,1.42,3.72,3.72,0,0,0,.74,1.15,3.49,3.49,0,0,0,1.13.75A3.7,3.7,0,0,0,21.73,52.93Zm3.24.58-2.38-2.37a.41.41,0,0,1-.13-.3.39.39,0,0,1,.13-.29.4.4,0,0,1,.29-.12.42.42,0,0,1,.29.12l2.39,2.37a.44.44,0,0,1,.12.29.44.44,0,0,1-.12.3.45.45,0,0,1-.3.13A.41.41,0,0,1,25,53.51Z"/><path class="cls-1" d="M28.32,53.64a.41.41,0,0,1-.43-.43V45.48a.41.41,0,0,1,.12-.31.43.43,0,0,1,.31-.12h2.06a3,3,0,0,1,1.43.33,2.6,2.6,0,0,1,1,.94,2.63,2.63,0,0,1,.36,1.38A2.48,2.48,0,0,1,32.79,49a2.53,2.53,0,0,1-1,.91,3,3,0,0,1-1.43.33H28.75v2.94a.41.41,0,0,1-.43.43Zm.43-4.19h1.63a2.13,2.13,0,0,0,1-.23,1.8,1.8,0,0,0,.69-.62,1.6,1.6,0,0,0,.25-.9,1.75,1.75,0,0,0-.25-1,1.8,1.8,0,0,0-.69-.65,2.13,2.13,0,0,0-1-.23H28.75Zm4.17,4.19a.39.39,0,0,1-.23-.06.59.59,0,0,1-.15-.16l-2.11-3.37.86-.22,2,3.15a.44.44,0,0,1,.06.46A.41.41,0,0,1,32.92,53.64Z"/><path class="cls-1" d="M37.33,53.75a3.9,3.9,0,0,1-1.3-.21A3,3,0,0,1,35,53a2.58,2.58,0,0,1-.68-.87.35.35,0,0,1,0-.33.43.43,0,0,1,.28-.2.4.4,0,0,1,.3,0,.51.51,0,0,1,.23.23,1.75,1.75,0,0,0,.48.58,2.28,2.28,0,0,0,.76.39,3.3,3.3,0,0,0,1,.13,2.56,2.56,0,0,0,1-.19,1.59,1.59,0,0,0,.71-.56,1.52,1.52,0,0,0,.26-.9,1.55,1.55,0,0,0-.49-1.15,2.68,2.68,0,0,0-1.55-.62,3.68,3.68,0,0,1-2-.79,2,2,0,0,1-.72-1.58A2,2,0,0,1,34.9,46a2.31,2.31,0,0,1,1-.76,3.63,3.63,0,0,1,1.44-.27,3,3,0,0,1,1.1.19,2.92,2.92,0,0,1,.86.51,2.56,2.56,0,0,1,.6.68.4.4,0,0,1,.07.34.38.38,0,0,1-.19.26.42.42,0,0,1-.33,0,.46.46,0,0,1-.26-.21,2.33,2.33,0,0,0-.42-.48,1.83,1.83,0,0,0-.59-.36,3,3,0,0,0-.85-.14,2.37,2.37,0,0,0-1.4.37,1.23,1.23,0,0,0-.53,1.07,1.29,1.29,0,0,0,.2.69,1.53,1.53,0,0,0,.66.54,4,4,0,0,0,1.22.33,3.64,3.64,0,0,1,2,.85,2.18,2.18,0,0,1,.67,1.67A2.39,2.39,0,0,1,40,52.33a2,2,0,0,1-.6.77,2.83,2.83,0,0,1-.91.48A3.75,3.75,0,0,1,37.33,53.75Z"/><path class="cls-1" d="M41,45.83a.39.39,0,0,1-.28-.11.39.39,0,0,1,.28-.67h6.09a.36.36,0,0,1,.28.11.39.39,0,0,1-.28.67Zm3,7.81a.44.44,0,0,1-.43-.43V45.05h.86v8.16a.41.41,0,0,1-.12.3A.4.4,0,0,1,44,53.64Z"/><path class="cls-1" d="M52.16,53.81a3.91,3.91,0,0,1-1.78-.38,2.93,2.93,0,0,1-1.21-1.07,2.81,2.81,0,0,1-.43-1.56V45.48a.41.41,0,0,1,.43-.43.41.41,0,0,1,.3.12.41.41,0,0,1,.12.31V50.8a2,2,0,0,0,.33,1.14,2.25,2.25,0,0,0,.91.78,3,3,0,0,0,1.33.28,2.9,2.9,0,0,0,1.31-.28,2.19,2.19,0,0,0,.89-.78,2,2,0,0,0,.33-1.14V45.48a.43.43,0,1,1,.86,0V50.8a2.82,2.82,0,0,1-.44,1.56,3,3,0,0,1-1.2,1.07A3.79,3.79,0,0,1,52.16,53.81Z"/><path class="cls-1" d="M60.59,53.64a.4.4,0,0,1-.39-.28l-3.27-7.64a.56.56,0,0,1,0-.49.37.37,0,0,1,.36-.18.41.41,0,0,1,.4.27l3,7.26h-.25l3-7.24a.52.52,0,0,1,.16-.23.54.54,0,0,1,.27-.06.33.33,0,0,1,.34.19.54.54,0,0,1,0,.43L61,53.36a.4.4,0,0,1-.17.22A.38.38,0,0,1,60.59,53.64Z"/><path class="cls-1" d="M67.46,53.64a.45.45,0,0,1-.27-.1.51.51,0,0,1-.16-.25l-2.26-7.63a.55.55,0,0,1,0-.44.37.37,0,0,1,.34-.17.4.4,0,0,1,.24.07.44.44,0,0,1,.18.26l2,7.08h-.25l1.92-6.9a.31.31,0,0,1,.15-.19.4.4,0,0,1,.26-.08.45.45,0,0,1,.25.07.37.37,0,0,1,.16.22L72,52.46h-.25l2-7.13a.37.37,0,0,1,.41-.28.32.32,0,0,1,.32.18.57.57,0,0,1,0,.43l-2.24,7.62a.54.54,0,0,1-.17.26.39.39,0,0,1-.27.1.45.45,0,0,1-.27-.1.51.51,0,0,1-.16-.25l-1.91-7h.26l-1.9,7a.69.69,0,0,1-.17.26A.45.45,0,0,1,67.46,53.64Z"/><path class="cls-1" d="M75.54,53.64a.4.4,0,0,1-.29-.11.39.39,0,0,1-.11-.28.38.38,0,0,1,.1-.3L78.11,49l.39-.32,2.58-3.51a.4.4,0,0,1,.33-.15.39.39,0,0,1,.28.11.41.41,0,0,1,.11.28.45.45,0,0,1-.07.28L79,49.39l-.37.31-2.8,3.81A.42.42,0,0,1,75.54,53.64Zm5.95,0a.38.38,0,0,1-.17,0,.45.45,0,0,1-.16-.12l-2.73-3.79-.35-.25-2.67-3.72a.45.45,0,0,1-.09-.29.42.42,0,0,1,.12-.27.34.34,0,0,1,.28-.11.4.4,0,0,1,.33.15l2.58,3.58.31.21,2.86,4a.43.43,0,0,1,.1.29.44.44,0,0,1-.11.28A.38.38,0,0,1,81.49,53.64Z"/><path class="cls-1" d="M86,53.64a.44.44,0,0,1-.43-.43V50.46l-3-4.74a.44.44,0,0,1-.08-.32.38.38,0,0,1,.13-.25.4.4,0,0,1,.28-.1.41.41,0,0,1,.21.05.46.46,0,0,1,.15.16l3,4.78h-.46l3-4.76a.59.59,0,0,1,.17-.18.51.51,0,0,1,.22-.05.34.34,0,0,1,.26.1.42.42,0,0,1,.12.26.41.41,0,0,1-.08.31l-3,4.74v2.75a.44.44,0,0,1-.43.43Z"/><path class="cls-1" d="M90.49,53.64a.41.41,0,0,1-.3-.12.45.45,0,0,1-.13-.28.38.38,0,0,1,.09-.29l5.69-7.13h-5.3a.46.46,0,0,1-.31-.1.34.34,0,0,1-.11-.28.38.38,0,0,1,.12-.28.45.45,0,0,1,.31-.11h6a.41.41,0,0,1,.31.12.47.47,0,0,1,.12.28.32.32,0,0,1-.08.27l-5.71,7.15h5.36a.44.44,0,0,1,.3.1.37.37,0,0,1,0,.56.44.44,0,0,1-.3.11Z"/></g></g></svg>