<svg xmlns="http://www.w3.org/2000/svg" viewBox="0 0 105.53 53.75"><defs><style>.cls-1{fill:#282828;}</style></defs><title>montserrat_regular</title><g id="Layer_2" data-name="Layer 2"><g id="verso"><path class="cls-1" d="M5.3,3A2.1,2.1,0,0,1,6,4.63V8.22H5.14V7.31A1.82,1.82,0,0,1,4.29,8,3.19,3.19,0,0,1,3,8.27a2.78,2.78,0,0,1-1.69-.46A1.45,1.45,0,0,1,.64,6.59,1.41,1.41,0,0,1,1.23,5.4,3.07,3.07,0,0,1,3.09,5h2V4.6a1.43,1.43,0,0,0-.46-1.14,2,2,0,0,0-1.34-.39,3.75,3.75,0,0,0-1.16.18,3,3,0,0,0-.95.5L.81,3.17A3.61,3.61,0,0,1,2,2.59a5.08,5.08,0,0,1,1.42-.2A2.9,2.9,0,0,1,5.3,3Zm-1,4.4a1.84,1.84,0,0,0,.78-.87v-1h-2c-1.09,0-1.63.35-1.63,1a.91.91,0,0,0,.42.79,2,2,0,0,0,1.18.3A2.43,2.43,0,0,0,4.33,7.35Z"/><path class="cls-1" d="M13.18,2.75a2.87,2.87,0,0,1,1.14,1,2.92,2.92,0,0,1,.41,1.53,2.87,2.87,0,0,1-.41,1.53A2.82,2.82,0,0,1,13.18,7.9a3.44,3.44,0,0,1-1.61.37A3.16,3.16,0,0,1,10.14,8a2.38,2.38,0,0,1-1-.89V8.22H8.29V.05h.86V3.53a2.62,2.62,0,0,1,1-.85,3.19,3.19,0,0,1,1.4-.29A3.56,3.56,0,0,1,13.18,2.75ZM12.71,7.3a2,2,0,0,0,.85-.8,2.21,2.21,0,0,0,.31-1.18,2.18,2.18,0,0,0-.31-1.17,2,2,0,0,0-.85-.8,2.75,2.75,0,0,0-2.42,0,2,2,0,0,0-.84.8,2.18,2.18,0,0,0-.31,1.17A2.21,2.21,0,0,0,9.45,6.5a2,2,0,0,0,.84.8,2.75,2.75,0,0,0,2.42,0Z"/><path class="cls-1" d="M17.43,7.9a2.8,2.8,0,0,1-1.59-2.58,2.77,2.77,0,0,1,.42-1.51,2.84,2.84,0,0,1,1.17-1.05,3.64,3.64,0,0,1,1.68-.37,3.45,3.45,0,0,1,1.47.29,2.37,2.37,0,0,1,1,.85l-.64.4a2,2,0,0,0-.8-.65,2.59,2.59,0,0,0-1.05-.21,2.66,2.66,0,0,0-1.24.28,2.05,2.05,0,0,0-.85.8,2.18,2.18,0,0,0-.31,1.17A2.22,2.22,0,0,0,17,6.51a2.09,2.09,0,0,0,.85.79,2.66,2.66,0,0,0,1.24.28,2.59,2.59,0,0,0,1.05-.21,1.92,1.92,0,0,0,.8-.64l.64.4a2.34,2.34,0,0,1-1,.85,3.59,3.59,0,0,1-1.46.29A3.64,3.64,0,0,1,17.43,7.9Z"/><path class="cls-1" d="M29,.05V8.22h-.82V7.07a2.51,2.51,0,0,1-1,.89,3.16,3.16,0,0,1-1.43.31,3.51,3.51,0,0,1-1.62-.37,2.79,2.79,0,0,1-1.13-1.05,2.87,2.87,0,0,1-.41-1.53,2.92,2.92,0,0,1,.41-1.53,2.84,2.84,0,0,1,1.13-1,3.63,3.63,0,0,1,1.62-.36,3.19,3.19,0,0,1,1.4.29,2.62,2.62,0,0,1,1,.85V.05ZM27,7.3a2.15,2.15,0,0,0,.84-.8,2.21,2.21,0,0,0,.31-1.18,2.18,2.18,0,0,0-.31-1.17,2.15,2.15,0,0,0-.84-.8,2.75,2.75,0,0,0-2.42,0,2,2,0,0,0-.84.8,2.18,2.18,0,0,0-.31,1.17,2.21,2.21,0,0,0,.31,1.18,2,2,0,0,0,.84.8A2.75,2.75,0,0,0,27,7.3Z"/><path class="cls-1" d="M36.88,5.57H31.57A2,2,0,0,0,32.33,7a2.69,2.69,0,0,0,1.74.56,3.2,3.2,0,0,0,1.09-.19A2.36,2.36,0,0,0,36,6.82l.49.51a2.81,2.81,0,0,1-1.06.7,3.9,3.9,0,0,1-1.39.24,3.75,3.75,0,0,1-1.74-.38,2.84,2.84,0,0,1-1.17-1,2.73,2.73,0,0,1-.43-1.52,2.85,2.85,0,0,1,.41-1.51,2.81,2.81,0,0,1,1.11-1.05,3.58,3.58,0,0,1,3.17,0,2.89,2.89,0,0,1,1.1,1,3,3,0,0,1,.4,1.52Zm-4.6-2A2,2,0,0,0,31.57,5h4.51a2.07,2.07,0,0,0-.71-1.39,2.33,2.33,0,0,0-1.55-.53A2.3,2.3,0,0,0,32.28,3.59Z"/><path class="cls-1" d="M39.91.93a1.11,1.11,0,0,0-.29.82v.68h2v.66H39.65V8.22h-.86V3.09H37.66V2.43h1.13V1.72a1.65,1.65,0,0,1,.5-1.26A2,2,0,0,1,40.71,0a2.74,2.74,0,0,1,.7.09A2,2,0,0,1,42,.36L41.69,1a1.46,1.46,0,0,0-.94-.29A1.18,1.18,0,0,0,39.91.93Z"/><path class="cls-1" d="M48.51,2.43V7.51a2.79,2.79,0,0,1-.79,2.19,3.5,3.5,0,0,1-2.39.71,5.76,5.76,0,0,1-1.67-.24,3.51,3.51,0,0,1-1.28-.66l.43-.59a3.39,3.39,0,0,0,1.12.58,4.52,4.52,0,0,0,1.38.21,2.56,2.56,0,0,0,1.77-.51,2,2,0,0,0,.57-1.59V6.88a2.51,2.51,0,0,1-1,.83A3.51,3.51,0,0,1,45.18,8a3.65,3.65,0,0,1-1.63-.36,2.78,2.78,0,0,1-1.14-1A2.62,2.62,0,0,1,42,5.18a2.57,2.57,0,0,1,.42-1.45,2.63,2.63,0,0,1,1.14-1,3.58,3.58,0,0,1,1.63-.35,3.62,3.62,0,0,1,1.46.29,2.68,2.68,0,0,1,1,.86V2.43ZM46.5,7a2,2,0,0,0,1.18-1.85,2,2,0,0,0-.31-1.09,2.1,2.1,0,0,0-.86-.75,2.8,2.8,0,0,0-1.25-.27A2.93,2.93,0,0,0,44,3.33a2.07,2.07,0,0,0-.85.75,2,2,0,0,0-.31,1.1,2,2,0,0,0,.31,1.1A2.07,2.07,0,0,0,44,7,3,3,0,0,0,46.5,7Z"/><path class="cls-1" d="M56.05,3a2.35,2.35,0,0,1,.71,1.84V8.22H55.9V4.94a1.84,1.84,0,0,0-.5-1.38A2,2,0,0,0,54,3.09a2.29,2.29,0,0,0-1.62.56,2,2,0,0,0-.6,1.53v3h-.86V.05h.86V3.44a2.23,2.23,0,0,1,1-.78,3.48,3.48,0,0,1,1.41-.27A2.76,2.76,0,0,1,56.05,3Z"/><path class="cls-1" d="M59.07,1a.52.52,0,0,1-.18-.4.51.51,0,0,1,.18-.38.64.64,0,0,1,.45-.17A.69.69,0,0,1,60,.21a.51.51,0,0,1,.18.38A.54.54,0,0,1,60,1a.68.68,0,0,1-.9,0Zm0,1.43h.86V8.22h-.86Z"/><path class="cls-1" d="M60.64,10.31a1.41,1.41,0,0,1-.59-.28l.3-.59a1.53,1.53,0,0,0,1,.29,1.06,1.06,0,0,0,.78-.27,1.12,1.12,0,0,0,.27-.81V2.43h.86V8.65a1.7,1.7,0,0,1-.48,1.28,1.87,1.87,0,0,1-1.38.48A2.61,2.61,0,0,1,60.64,10.31ZM62.38,1a.52.52,0,0,1-.18-.4.51.51,0,0,1,.18-.38A.64.64,0,0,1,62.83,0a.68.68,0,0,1,.44.16.49.49,0,0,1,.19.38.52.52,0,0,1-.19.41.64.64,0,0,1-.44.17A.64.64,0,0,1,62.38,1Z"/><path class="cls-1" d="M68,5.31,66.5,6.57V8.22h-.86V.05h.86V5.59l3.79-3.16h1.06L68.63,4.8l3,3.42h-1Z"/><path class="cls-1" d="M72.9.05h.85V8.22H72.9Z"/><path class="cls-1" d="M85.94,3a2.38,2.38,0,0,1,.68,1.85V8.22h-.85V4.94a1.87,1.87,0,0,0-.48-1.38,1.86,1.86,0,0,0-1.35-.47,2.1,2.1,0,0,0-1.55.56,2,2,0,0,0-.57,1.53v3H81V4.94a1.87,1.87,0,0,0-.48-1.38,1.85,1.85,0,0,0-1.35-.47,2.12,2.12,0,0,0-1.55.56A2,2,0,0,0,77,5.18v3h-.86V2.43H77V3.49a2.1,2.1,0,0,1,.94-.82,3.19,3.19,0,0,1,1.39-.28,3,3,0,0,1,1.38.3,1.94,1.94,0,0,1,.87.92,2.46,2.46,0,0,1,1-.9,3.44,3.44,0,0,1,1.5-.32A2.7,2.7,0,0,1,85.94,3Z"/><path class="cls-1" d="M94.09,3a2.35,2.35,0,0,1,.71,1.84V8.22h-.86V4.94a1.83,1.83,0,0,0-.49-1.38A2,2,0,0,0,92,3.09a2.29,2.29,0,0,0-1.62.56,2,2,0,0,0-.6,1.53v3H89V2.43h.83V3.5a2.24,2.24,0,0,1,1-.82,3.25,3.25,0,0,1,1.44-.29A2.74,2.74,0,0,1,94.09,3Z"/><path class="cls-1" d="M98.09,7.89a2.88,2.88,0,0,1-1.16-1,2.8,2.8,0,0,1-.42-1.52,2.77,2.77,0,0,1,.42-1.51,2.88,2.88,0,0,1,1.16-1.05,3.89,3.89,0,0,1,3.31,0A2.83,2.83,0,0,1,103,5.32a2.83,2.83,0,0,1-1.57,2.57,3.79,3.79,0,0,1-3.31,0ZM101,7.3a2,2,0,0,0,.84-.8,2.3,2.3,0,0,0,.3-1.18,2.26,2.26,0,0,0-.3-1.17,2,2,0,0,0-.84-.8,2.78,2.78,0,0,0-2.43,0,2,2,0,0,0-.84.8,2.18,2.18,0,0,0-.31,1.17,2.21,2.21,0,0,0,.31,1.18,2,2,0,0,0,.84.8,2.78,2.78,0,0,0,2.43,0Z"/><path class="cls-1" d="M6.06,14.75a2.78,2.78,0,0,1,1.55,2.57,2.9,2.9,0,0,1-.41,1.54,2.77,2.77,0,0,1-1.13,1,3.46,3.46,0,0,1-1.63.37A3.29,3.29,0,0,1,3.05,20a2.49,2.49,0,0,1-1-.85v3.22H1.17V14.43H2v1.15a2.58,2.58,0,0,1,1-.89,3.33,3.33,0,0,1,1.43-.3A3.57,3.57,0,0,1,6.06,14.75ZM5.59,19.3a2.05,2.05,0,0,0,.85-.8,2.21,2.21,0,0,0,.31-1.18,2.16,2.16,0,0,0-1.16-2,2.54,2.54,0,0,0-1.21-.28,2.54,2.54,0,0,0-1.21.28,2.26,2.26,0,0,0-.85.8A2.26,2.26,0,0,0,2,17.32a2.3,2.3,0,0,0,.3,1.18,2.11,2.11,0,0,0,.85.8,2.54,2.54,0,0,0,1.21.28A2.54,2.54,0,0,0,5.59,19.3Z"/><path class="cls-1" d="M15.15,14.43v7.92h-.86V19.13a2.49,2.49,0,0,1-1,.85,3.26,3.26,0,0,1-1.39.29,3.42,3.42,0,0,1-1.62-.37,2.7,2.7,0,0,1-1.13-1,2.9,2.9,0,0,1,1.13-4.11,3.6,3.6,0,0,1,1.62-.36,3.3,3.3,0,0,1,1.43.3,2.58,2.58,0,0,1,1,.89V14.43Zm-2,4.87a2.11,2.11,0,0,0,.85-.8,2.31,2.31,0,0,0,.31-1.18,2.16,2.16,0,0,0-1.16-2,2.47,2.47,0,0,0-1.2-.28,2.54,2.54,0,0,0-1.21.28,2.13,2.13,0,0,0-1.15,2,2.3,2.3,0,0,0,.3,1.18,2.11,2.11,0,0,0,.85.8,2.54,2.54,0,0,0,1.21.28A2.47,2.47,0,0,0,13.15,19.3Z"/><path class="cls-1" d="M19.26,14.68a3.42,3.42,0,0,1,1.48-.29v.76l-.2,0A2.12,2.12,0,0,0,19,15.7a2.09,2.09,0,0,0-.57,1.57v2.95h-.86V14.43h.82v1.13A2,2,0,0,1,19.26,14.68Z"/><path class="cls-1" d="M22.56,20.07a3.6,3.6,0,0,1-1.11-.51l.39-.62a3.44,3.44,0,0,0,1,.47,4.36,4.36,0,0,0,1.26.18,2.49,2.49,0,0,0,1.28-.25.77.77,0,0,0,.42-.7.61.61,0,0,0-.23-.5,1.56,1.56,0,0,0-.58-.27q-.34-.09-.93-.18a12.46,12.46,0,0,1-1.24-.27A1.79,1.79,0,0,1,22,17a1.19,1.19,0,0,1-.34-.91,1.38,1.38,0,0,1,.67-1.19,3.17,3.17,0,0,1,1.84-.46,5.26,5.26,0,0,1,1.24.15,3.13,3.13,0,0,1,1,.39l-.37.62a3.47,3.47,0,0,0-1.88-.49,2.37,2.37,0,0,0-1.23.26.8.8,0,0,0-.42.69.65.65,0,0,0,.24.53,1.44,1.44,0,0,0,.58.29,8.84,8.84,0,0,0,1,.2c.5.09.91.17,1.22.26a1.91,1.91,0,0,1,.78.45,1.17,1.17,0,0,1,.33.88,1.37,1.37,0,0,1-.7,1.21,3.59,3.59,0,0,1-1.92.44A5.51,5.51,0,0,1,22.56,20.07Z"/><path class="cls-1" d="M31.58,19.87a1.73,1.73,0,0,1-.59.3,2.66,2.66,0,0,1-.75.1,1.93,1.93,0,0,1-1.37-.44,1.57,1.57,0,0,1-.49-1.24v-3.5H27.25v-.66h1.13V13.17h.86v1.26h1.93v.66H29.24v3.45a1.07,1.07,0,0,0,.28.79,1.16,1.16,0,0,0,.82.27,1.44,1.44,0,0,0,.51-.08,1.17,1.17,0,0,0,.43-.22Z"/><path class="cls-1" d="M38.86,14.43v5.79H38V19.16a2.19,2.19,0,0,1-.93.82,3,3,0,0,1-1.35.29,2.87,2.87,0,0,1-2-.63,2.33,2.33,0,0,1-.72-1.85V14.43h.86v3.28a1.8,1.8,0,0,0,.49,1.38,1.94,1.94,0,0,0,1.41.48A2.22,2.22,0,0,0,37.43,19,2.05,2.05,0,0,0,38,17.47v-3Z"/><path class="cls-1" d="M46.6,14.43l-2.82,5.79H42.9l-2.82-5.79H41l2.38,4.93,2.4-4.93Z"/><path class="cls-1" d="M57.07,14.43l-2.4,5.79h-.81l-2-4.74-2,4.74H49l-2.39-5.79h.82l2,4.92,2-4.92h.74l2,4.92,2-4.92Z"/><path class="cls-1" d="M62,20.22,60,17.8l-2,2.42H57l2.51-3-2.38-2.82h1L60,16.7l1.91-2.27h.94l-2.39,2.82,2.53,3Z"/><path class="cls-1" d="M69.42,14.43l-3.17,6.48a2.75,2.75,0,0,1-.9,1.15,2.11,2.11,0,0,1-1.22.35,2.61,2.61,0,0,1-.85-.14,1.8,1.8,0,0,1-.69-.39l.4-.59a1.62,1.62,0,0,0,1.16.44,1.24,1.24,0,0,0,.74-.22,2,2,0,0,0,.57-.74l.28-.56L62.9,14.43h.89l2.4,4.92,2.39-4.92Z"/><path class="cls-1" d="M75,19.57v.65H69.82V19.7l4-4.61H69.89v-.66h5V15l-4,4.62Z"/><path class="cls-1" d="M6.65,38.16H1.94l-1,2.06H0l3.86-7.7h.89l3.86,7.7H7.67Zm-.32-.66-2-4.14-2,4.14Z"/><path class="cls-1" d="M16.62,36.9a1.8,1.8,0,0,1,.45,1.26,1.72,1.72,0,0,1-.8,1.52,4.28,4.28,0,0,1-2.37.54H10v-7.7h3.64a4,4,0,0,1,2.2.51,1.67,1.67,0,0,1,.77,1.47,1.72,1.72,0,0,1-.34,1.08,2,2,0,0,1-1,.67A2.27,2.27,0,0,1,16.62,36.9ZM10.9,33.19V36h2.69a2.92,2.92,0,0,0,1.59-.36,1.14,1.14,0,0,0,.55-1,1.16,1.16,0,0,0-.55-1,3,3,0,0,0-1.59-.35Zm4.7,6a1.2,1.2,0,0,0,.58-1.1c0-1-.77-1.44-2.3-1.44h-3v2.9h3A3.31,3.31,0,0,0,15.6,39.19Z"/><path class="cls-1" d="M20.52,39.78a3.93,3.93,0,0,1-1.58-1.41,3.55,3.55,0,0,1-.58-2,3.61,3.61,0,0,1,.58-2A3.84,3.84,0,0,1,20.52,33a5,5,0,0,1,2.27-.51,5.12,5.12,0,0,1,1.74.29,3.7,3.7,0,0,1,1.35.83l-.56.52a3.55,3.55,0,0,0-2.5-.91,4,4,0,0,0-1.82.41,3.2,3.2,0,0,0-1.29,1.15,3.06,3.06,0,0,0,0,3.26A3.26,3.26,0,0,0,21,39.14a3.9,3.9,0,0,0,1.82.42,3.49,3.49,0,0,0,2.5-.93l.56.52a3.59,3.59,0,0,1-1.35.84,5,5,0,0,1-1.75.29A5,5,0,0,1,20.52,39.78Z"/><path class="cls-1" d="M27.79,32.52h3.44A5.37,5.37,0,0,1,33.6,33a3.79,3.79,0,0,1,1.59,1.36,3.78,3.78,0,0,1,0,4,3.81,3.81,0,0,1-1.59,1.37,5.51,5.51,0,0,1-2.37.49H27.79Zm3.4,7a4.4,4.4,0,0,0,1.94-.4A3.19,3.19,0,0,0,34.42,38a2.9,2.9,0,0,0,.46-1.63,2.94,2.94,0,0,0-.46-1.64,3.19,3.19,0,0,0-1.29-1.11,4.4,4.4,0,0,0-1.94-.4h-2.5v6.29Z"/><path class="cls-1" d="M43.74,39.51v.71h-6v-7.7h5.8v.7h-4.9V36H43v.69H38.66v2.86Z"/><path class="cls-1" d="M46.74,33.22v3h4.37V37H46.74v3.27h-.9v-7.7h5.8v.7Z"/><path class="cls-1" d="M59.33,36.37h.86V39.3a4.34,4.34,0,0,1-1.4.73,5.66,5.66,0,0,1-1.71.25,5.16,5.16,0,0,1-2.28-.5,4,4,0,0,1-1.59-1.41,3.55,3.55,0,0,1-.58-2,3.61,3.61,0,0,1,.58-2A3.87,3.87,0,0,1,54.8,33a5,5,0,0,1,2.29-.51,5.32,5.32,0,0,1,1.78.28,3.66,3.66,0,0,1,1.36.83l-.55.52a3.68,3.68,0,0,0-2.55-.9,4,4,0,0,0-1.85.41A3.21,3.21,0,0,0,54,34.73a3,3,0,0,0-.47,1.64A3,3,0,0,0,54,38a3.26,3.26,0,0,0,1.29,1.14,4,4,0,0,0,1.85.42,3.93,3.93,0,0,0,2.21-.6Z"/><path class="cls-1" d="M69.77,32.52v7.7h-.88V36.66H63.6v3.56h-.89v-7.7h.89V36h5.29V32.52Z"/><path class="cls-1" d="M72.52,32.52h.9v7.7h-.9Z"/><path class="cls-1" d="M75.73,40a2.5,2.5,0,0,1-1-.82l.53-.55a2.19,2.19,0,0,0,1.83.95c1,0,1.57-.57,1.57-1.7V33.22H75.57v-.7h4v5.33a2.44,2.44,0,0,1-.62,1.82,2.52,2.52,0,0,1-1.84.61A3.2,3.2,0,0,1,75.73,40Z"/><path class="cls-1" d="M84.84,36.6l-1.73,1.59v2h-.89v-7.7h.89v4.65l5-4.65h1L85.44,36l3.91,4.22H88.29Z"/><path class="cls-1" d="M90.8,32.52h.9v7h4.73v.71H90.8Z"/><path class="cls-1" d="M105,32.52v7.7h-.74L98.81,34v6.25h-.9v-7.7h.74l5.44,6.24V32.52Z"/><path class="cls-1" d="M2.77,51.77a4,4,0,0,1-1.59-1.4,3.74,3.74,0,0,1,0-4A3.9,3.9,0,0,1,2.77,45a5,5,0,0,1,2.28-.51A4.94,4.94,0,0,1,7.31,45a3.93,3.93,0,0,1,1.59,1.4,3.69,3.69,0,0,1,.58,2,3.63,3.63,0,0,1-.58,2,4,4,0,0,1-1.59,1.41,5.07,5.07,0,0,1-2.26.5A5,5,0,0,1,2.77,51.77Zm4.09-.63A3.12,3.12,0,0,0,8.13,50a3.05,3.05,0,0,0,.45-1.63,3.09,3.09,0,0,0-.45-1.64,3.19,3.19,0,0,0-1.27-1.14,3.89,3.89,0,0,0-1.81-.41,3.9,3.9,0,0,0-1.82.41A3.22,3.22,0,0,0,2,46.73a3,3,0,0,0-.46,1.64A3,3,0,0,0,2,50a3.15,3.15,0,0,0,1.28,1.14,3.9,3.9,0,0,0,1.82.42A3.89,3.89,0,0,0,6.86,51.14Z"/><path class="cls-1" d="M17.18,45.22a2.49,2.49,0,0,1,0,3.87,4.13,4.13,0,0,1-2.53.7H12.38v2.43h-.9v-7.7h3.17A4.07,4.07,0,0,1,17.18,45.22Zm-.64,3.35a1.66,1.66,0,0,0,.66-1.41,1.69,1.69,0,0,0-.66-1.44,3.16,3.16,0,0,0-1.92-.5H12.38v3.85h2.24A3.16,3.16,0,0,0,16.54,48.57Z"/><path class="cls-1" d="M28.66,52.87a2.67,2.67,0,0,1-.91.65,2.87,2.87,0,0,1-1.14.23,3.19,3.19,0,0,1-1.42-.34,6.24,6.24,0,0,1-1.5-1.13,4.81,4.81,0,0,1-2.2-.55A4,4,0,0,1,20,50.34a3.64,3.64,0,0,1-.56-2,3.55,3.55,0,0,1,.58-2A3.9,3.9,0,0,1,21.57,45a5,5,0,0,1,2.27-.51,5,5,0,0,1,2.27.51,3.93,3.93,0,0,1,1.59,1.4,3.69,3.69,0,0,1,.58,2,3.58,3.58,0,0,1-.45,1.77,3.78,3.78,0,0,1-1.23,1.35,4.53,4.53,0,0,1-1.81.72,2.72,2.72,0,0,0,1.83.89,2.15,2.15,0,0,0,1.61-.71ZM20.75,50A3.23,3.23,0,0,0,22,51.14a4.13,4.13,0,0,0,3.63,0A3.24,3.24,0,0,0,26.92,50a3.12,3.12,0,0,0,0-3.26,3.19,3.19,0,0,0-1.26-1.15,4.22,4.22,0,0,0-3.63,0,3.18,3.18,0,0,0-1.28,1.15,3.06,3.06,0,0,0,0,3.26Z"/><path class="cls-1" d="M36.05,52.22l-1.93-2.48c-.22,0-.44,0-.68,0H31.17v2.45h-.89v-7.7h3.16a4.08,4.08,0,0,1,2.54.7,2.51,2.51,0,0,1,.41,3.46,2.85,2.85,0,0,1-1.43.9L37,52.22Zm-.71-3.64a1.88,1.88,0,0,0,0-2.86,3.16,3.16,0,0,0-1.92-.5H31.17v3.86h2.25A3.16,3.16,0,0,0,35.34,48.58Z"/><path class="cls-1" d="M39.53,52a3.48,3.48,0,0,1-1.33-.73l.35-.62a3.53,3.53,0,0,0,1.22.67,4.92,4.92,0,0,0,1.57.26,3.12,3.12,0,0,0,1.7-.38,1.13,1.13,0,0,0,.57-1,.92.92,0,0,0-.31-.74,2.12,2.12,0,0,0-.75-.42c-.3-.1-.72-.21-1.25-.33s-1.14-.29-1.52-.42a2.65,2.65,0,0,1-1-.62,1.58,1.58,0,0,1-.41-1.14,1.83,1.83,0,0,1,.34-1.06,2.28,2.28,0,0,1,1-.76,4.65,4.65,0,0,1,1.74-.29,5.7,5.7,0,0,1,1.42.18,4.38,4.38,0,0,1,1.2.5l-.3.65a4.76,4.76,0,0,0-1.14-.48,4.85,4.85,0,0,0-1.18-.16,2.92,2.92,0,0,0-1.67.39,1.17,1.17,0,0,0-.56,1,1,1,0,0,0,.3.74,2.1,2.1,0,0,0,.78.43c.31.1.72.21,1.25.33a12.59,12.59,0,0,1,1.5.41,2.35,2.35,0,0,1,1,.62,1.5,1.5,0,0,1,.4,1.11,1.76,1.76,0,0,1-.34,1.06,2.27,2.27,0,0,1-1.06.76,4.76,4.76,0,0,1-1.75.28A6.06,6.06,0,0,1,39.53,52Z"/><path class="cls-1" d="M48,45.22H45v-.7h6.84v.7h-3v7H48Z"/><path class="cls-1" d="M53.92,51.42A3.25,3.25,0,0,1,53,48.93V44.52h.89v4.37a2.74,2.74,0,0,0,.67,2,3.14,3.14,0,0,0,3.85,0,2.73,2.73,0,0,0,.66-2V44.52h.87v4.41A3.24,3.24,0,0,1,59,51.42a4.23,4.23,0,0,1-5.11,0Z"/><path class="cls-1" d="M69.66,44.52l-3.74,7.7H65l-3.75-7.7h1l3.24,6.69,3.25-6.69Z"/><path class="cls-1" d="M82.66,44.52l-2.85,7.7h-.94L76.4,45.65l-2.49,6.57H73l-2.85-7.7h.92l2.44,6.62L76,44.52h.83l2.49,6.65,2.48-6.65Z"/><path class="cls-1" d="M89.51,52.22l-2.73-3.39-2.72,3.39H83l3.21-4-3-3.74h1l2.55,3.14,2.53-3.14h1l-3,3.71,3.23,4Z"/><path class="cls-1" d="M94.66,49.55v2.67h-.88V49.55l-3.38-5h1l2.89,4.32,2.9-4.32H98Z"/><path class="cls-1" d="M105.53,51.51v.71H98.6v-.56l5.6-6.44H98.68v-.7h6.7v.56l-5.59,6.43Z"/></g></g></svg>