<svg xmlns="http://www.w3.org/2000/svg" viewBox="0 0 118.24 55.17"><title>montserrat</title><g id="Layer_2" data-name="Layer 2"><g id="verso"><path d="M5.69,3.17a2.28,2.28,0,0,1,.76,1.88V8.49H5V7.78a1.79,1.79,0,0,1-.79.59A3.46,3.46,0,0,1,3,8.57a3.26,3.26,0,0,1-1.26-.23,1.89,1.89,0,0,1-.84-.62,1.48,1.48,0,0,1-.3-.91,1.51,1.51,0,0,1,.65-1.27,3.43,3.43,0,0,1,2-.48H4.94V5A1.14,1.14,0,0,0,4.53,4a1.87,1.87,0,0,0-1.2-.33,3.89,3.89,0,0,0-1.07.15,2.68,2.68,0,0,0-.88.43l-.59-1A3.54,3.54,0,0,1,2,2.74a5.73,5.73,0,0,1,1.51-.19A3.37,3.37,0,0,1,5.69,3.17ZM4.32,7.33a1.34,1.34,0,0,0,.62-.67V6H3.38c-.87,0-1.3.26-1.3.78a.71.71,0,0,0,.32.6,1.59,1.59,0,0,0,.91.22A2.09,2.09,0,0,0,4.32,7.33Z"/><path d="M13.64,2.93A2.88,2.88,0,0,1,14.8,4a3,3,0,0,1,.42,1.58,2.93,2.93,0,0,1-.42,1.57A2.85,2.85,0,0,1,13.64,8.2,3.85,3.85,0,0,1,12,8.57a3.34,3.34,0,0,1-1.21-.21,2.23,2.23,0,0,1-.92-.63v.76H8.38V.33H9.89v3a2.62,2.62,0,0,1,.91-.58A3.27,3.27,0,0,1,12,2.55,3.72,3.72,0,0,1,13.64,2.93Zm-.49,4a1.74,1.74,0,0,0,.54-1.33,1.75,1.75,0,0,0-.54-1.34,1.92,1.92,0,0,0-1.37-.5,2.07,2.07,0,0,0-1,.22,1.73,1.73,0,0,0-.69.65,1.92,1.92,0,0,0,0,1.93,1.73,1.73,0,0,0,.69.65,2.07,2.07,0,0,0,1,.22A1.92,1.92,0,0,0,13.15,6.89Z"/><path d="M17.82,8.18a2.89,2.89,0,0,1-1.24-1.07,2.78,2.78,0,0,1-.45-1.55A2.79,2.79,0,0,1,16.58,4a3,3,0,0,1,1.23-1.06,4,4,0,0,1,1.81-.39,3.83,3.83,0,0,1,1.67.35,2.43,2.43,0,0,1,1.08,1l-1.16.61a1.76,1.76,0,0,0-.69-.61,2.13,2.13,0,0,0-.91-.2,2,2,0,0,0-1.4.5,1.71,1.71,0,0,0-.56,1.34,1.7,1.7,0,0,0,.55,1.33,2,2,0,0,0,1.41.5,2.13,2.13,0,0,0,.91-.2,1.76,1.76,0,0,0,.69-.61l1.16.61a2.51,2.51,0,0,1-1.09,1,3.65,3.65,0,0,1-1.66.36A4,4,0,0,1,17.82,8.18Z"/><path d="M29.89.33V8.49H28.44V7.73a2.29,2.29,0,0,1-.92.63,3.38,3.38,0,0,1-1.21.21,3.84,3.84,0,0,1-1.68-.37,2.85,2.85,0,0,1-1.16-1.07,2.93,2.93,0,0,1-.42-1.57A3,3,0,0,1,23.47,4a2.88,2.88,0,0,1,1.16-1,3.71,3.71,0,0,1,1.68-.38,3.42,3.42,0,0,1,1.17.2,2.39,2.39,0,0,1,.9.59v-3ZM27.47,7.17a1.7,1.7,0,0,0,.68-.65,1.92,1.92,0,0,0,0-1.93,1.7,1.7,0,0,0-.68-.65,2.29,2.29,0,0,0-2,0,1.73,1.73,0,0,0-.69.65,1.82,1.82,0,0,0-.25,1,1.81,1.81,0,0,0,.25,1,1.73,1.73,0,0,0,.69.65,2.29,2.29,0,0,0,2,0Z"/><path d="M37.91,6H32.85a1.58,1.58,0,0,0,.69,1,2.4,2.4,0,0,0,1.4.38,2.49,2.49,0,0,0,1.75-.63l.81.84a2.71,2.71,0,0,1-1.1.72,4.37,4.37,0,0,1-1.5.24A4.25,4.25,0,0,1,33,8.18a2.92,2.92,0,0,1-1.25-1.07,2.86,2.86,0,0,1-.44-1.55A2.86,2.86,0,0,1,33,2.94a3.95,3.95,0,0,1,3.4,0A2.85,2.85,0,0,1,37.52,4a3.08,3.08,0,0,1,.41,1.59C37.93,5.68,37.92,5.82,37.91,6ZM33.45,4a1.58,1.58,0,0,0-.61,1H36.5a1.61,1.61,0,0,0-.6-1,1.88,1.88,0,0,0-1.23-.4A1.92,1.92,0,0,0,33.45,4Z"/><path d="M41.05,2.31v.35h1.77v1.1H41.1V8.49H39.59V3.76H38.52V2.66h1.07V2.29A1.91,1.91,0,0,1,40.19.8a2.42,2.42,0,0,1,1.7-.55,2.55,2.55,0,0,1,1.37.32l-.43,1A1.53,1.53,0,0,0,42,1.36.84.84,0,0,0,41.05,2.31Z"/><path d="M50.14,2.62v5q0,3.11-3.48,3.1a7.13,7.13,0,0,1-1.76-.21,3.83,3.83,0,0,1-1.38-.62l.68-1a3,3,0,0,0,1.07.51,4.48,4.48,0,0,0,1.31.2,2.31,2.31,0,0,0,1.55-.44,1.72,1.72,0,0,0,.5-1.35v-.3a2.57,2.57,0,0,1-.94.58,3.67,3.67,0,0,1-1.22.2,3.74,3.74,0,0,1-1.66-.36,2.75,2.75,0,0,1-1.17-1,2.57,2.57,0,0,1-.43-1.48,2.57,2.57,0,0,1,.43-1.48,2.8,2.8,0,0,1,1.17-1,3.88,3.88,0,0,1,1.66-.35,3.68,3.68,0,0,1,1.27.21,2.35,2.35,0,0,1,1,.64V2.62Zm-2,4a1.5,1.5,0,0,0,.55-1.21,1.49,1.49,0,0,0-.55-1.2,2.07,2.07,0,0,0-1.4-.46,2.11,2.11,0,0,0-1.42.46,1.49,1.49,0,0,0-.55,1.2,1.5,1.5,0,0,0,.55,1.21,2.06,2.06,0,0,0,1.42.47A2,2,0,0,0,48.1,6.59Z"/><path d="M57.73,3.2a2.44,2.44,0,0,1,.74,1.93V8.49H57V5.3a1.54,1.54,0,0,0-.4-1.16,1.55,1.55,0,0,0-1.13-.39,1.81,1.81,0,0,0-1.32.46,1.71,1.71,0,0,0-.48,1.31v3H52.12V.33h1.51v3a2.36,2.36,0,0,1,.92-.55,3.69,3.69,0,0,1,1.23-.2A2.85,2.85,0,0,1,57.73,3.2Z"/><path d="M60.46,1.41a.71.71,0,0,1-.28-.58.72.72,0,0,1,.28-.59A1,1,0,0,1,61.15,0a1.08,1.08,0,0,1,.69.23.71.71,0,0,1,.27.56.79.79,0,0,1-.27.61,1,1,0,0,1-.69.25A1,1,0,0,1,60.46,1.41Zm-.07,1.21H61.9V8.49H60.39Z"/><path d="M61.76,10.36l.44-1a1.55,1.55,0,0,0,.88.23.85.85,0,0,0,.65-.24,1,1,0,0,0,.22-.7v-6h1.51v6a2,2,0,0,1-.59,1.54,2.3,2.3,0,0,1-1.66.56A2.55,2.55,0,0,1,61.76,10.36ZM64,1.41a.71.71,0,0,1-.28-.58A.72.72,0,0,1,64,.24,1,1,0,0,1,64.7,0a1.08,1.08,0,0,1,.69.23.71.71,0,0,1,.27.56.79.79,0,0,1-.27.61,1,1,0,0,1-.69.25A1,1,0,0,1,64,1.41Z"/><path d="M67.44.33H69V8.49H67.44Z"/><path d="M81,3.2a2.48,2.48,0,0,1,.71,1.93V8.49H80.2V5.3a1.62,1.62,0,0,0-.38-1.16,1.39,1.39,0,0,0-1.07-.39,1.64,1.64,0,0,0-1.22.46,1.73,1.73,0,0,0-.46,1.3v3H75.56V5.3a1.62,1.62,0,0,0-.37-1.16,1.43,1.43,0,0,0-1.08-.39,1.65,1.65,0,0,0-1.22.45,1.78,1.78,0,0,0-.45,1.31v3H70.93V2.62h1.43v.75a2.32,2.32,0,0,1,.91-.61,3.3,3.3,0,0,1,1.21-.21,3,3,0,0,1,1.28.25,2,2,0,0,1,.89.73,2.66,2.66,0,0,1,1-.72,3.61,3.61,0,0,1,1.38-.26A2.79,2.79,0,0,1,81,3.2Z"/><path d="M89.25,3.2A2.44,2.44,0,0,1,90,5.13V8.49H88.48V5.3a1.54,1.54,0,0,0-.4-1.16A1.54,1.54,0,0,0,87,3.75a1.81,1.81,0,0,0-1.32.46,1.71,1.71,0,0,0-.48,1.31v3H83.64V2.62h1.44v.76A2.38,2.38,0,0,1,86,2.76a3.66,3.66,0,0,1,1.28-.21A2.85,2.85,0,0,1,89.25,3.2Z"/><path d="M93.1,8.18a2.89,2.89,0,0,1-1.22-1.07,2.78,2.78,0,0,1-.44-1.55A2.79,2.79,0,0,1,91.88,4,2.94,2.94,0,0,1,93.1,2.94a4.21,4.21,0,0,1,3.54,0A3,3,0,0,1,97.87,4a2.87,2.87,0,0,1,.44,1.56,2.86,2.86,0,0,1-.44,1.55,2.92,2.92,0,0,1-1.23,1.07,4.21,4.21,0,0,1-3.54,0Zm3.14-1.29a1.71,1.71,0,0,0,.55-1.33,1.72,1.72,0,0,0-.55-1.34,2.13,2.13,0,0,0-2.74,0A1.75,1.75,0,0,0,93,5.56a1.74,1.74,0,0,0,.54,1.33,2.13,2.13,0,0,0,2.74,0Z"/><path d="M105,2.93a2.84,2.84,0,0,1,1.17,1,3,3,0,0,1,.42,1.58,2.93,2.93,0,0,1-.42,1.57A2.82,2.82,0,0,1,105,8.2a3.77,3.77,0,0,1-1.68.37,2.7,2.7,0,0,1-2.06-.79v2.85H99.76v-8h1.43v.77a2.33,2.33,0,0,1,.93-.63,3.34,3.34,0,0,1,1.21-.21A3.65,3.65,0,0,1,105,2.93Zm-.48,4a1.74,1.74,0,0,0,.54-1.33,1.75,1.75,0,0,0-.54-1.34,1.94,1.94,0,0,0-1.37-.5,2.11,2.11,0,0,0-1,.22,1.64,1.64,0,0,0-.68.65,1.92,1.92,0,0,0,0,1.93,1.64,1.64,0,0,0,.68.65,2.11,2.11,0,0,0,1,.22A1.94,1.94,0,0,0,104.53,6.89Z"/><path d="M7.35,14.62v8H5.84V19.78a2.7,2.7,0,0,1-2.06.79,3.85,3.85,0,0,1-1.69-.37A2.81,2.81,0,0,1,.94,19.14,3.18,3.18,0,0,1,.94,16,2.88,2.88,0,0,1,2.1,14.93a3.65,3.65,0,0,1,1.68-.38A3.34,3.34,0,0,1,5,14.76a2.33,2.33,0,0,1,.93.63v-.77Zm-2,4.27a1.9,1.9,0,0,0,0-2.67A2,2,0,0,0,4,15.72a1.94,1.94,0,0,0-1.37.5,1.92,1.92,0,0,0,0,2.67,1.94,1.94,0,0,0,1.37.5A2,2,0,0,0,5.32,18.89Z"/><path d="M13.06,14.55v1.31l-.35,0a1.89,1.89,0,0,0-1.37.47,1.76,1.76,0,0,0-.5,1.34v2.85H9.33V14.62h1.44v.86A2.6,2.6,0,0,1,13.06,14.55Z"/><path d="M14.83,20.38a4,4,0,0,1-1.2-.47l.58-1.05a4,4,0,0,0,1,.43,5.09,5.09,0,0,0,1.21.16c.9,0,1.35-.22,1.35-.65a.44.44,0,0,0-.35-.43,6.08,6.08,0,0,0-1.1-.23,8.71,8.71,0,0,1-1.3-.26,2,2,0,0,1-.87-.5,1.33,1.33,0,0,1-.37-1,1.55,1.55,0,0,1,.77-1.34,3.77,3.77,0,0,1,2.07-.5,6.68,6.68,0,0,1,1.33.14,3.86,3.86,0,0,1,1.09.37l-.58,1a3.92,3.92,0,0,0-1.85-.44,2.25,2.25,0,0,0-1,.18.56.56,0,0,0-.34.48.48.48,0,0,0,.37.47,6.15,6.15,0,0,0,1.14.26,10,10,0,0,1,1.26.25,2,2,0,0,1,.85.49,1.25,1.25,0,0,1,.36,1,1.5,1.5,0,0,1-.78,1.32,4,4,0,0,1-2.14.5A6,6,0,0,1,14.83,20.38Z"/><path d="M24.46,20.17a1.77,1.77,0,0,1-.65.3,3,3,0,0,1-.8.1,2.4,2.4,0,0,1-1.64-.51,1.83,1.83,0,0,1-.58-1.47V15.76H19.73v-1.1h1.06V13.32H22.3v1.34H24v1.1H22.3v2.8a.89.89,0,0,0,.23.65.9.9,0,0,0,.66.23,1.38,1.38,0,0,0,.85-.25Z"/><path d="M32,14.62v5.87H30.51v-.75a2.25,2.25,0,0,1-.91.61,3.39,3.39,0,0,1-3.2-.43,2.45,2.45,0,0,1-.74-2V14.62h1.5v3.17a1.62,1.62,0,0,0,.4,1.18,1.5,1.5,0,0,0,1.11.39A1.77,1.77,0,0,0,30,18.9a1.71,1.71,0,0,0,.48-1.31v-3Z"/><path d="M40,14.62,37.2,20.49H35.64l-2.76-5.87h1.56l2,4.35,2.06-4.35Z"/><path d="M50.84,14.62l-2.38,5.87H47l-1.66-4-1.69,4H42.21l-2.37-5.87h1.43L43,19l1.77-4.33H46L47.75,19l1.75-4.35Z"/><path d="M55.62,20.49l-1.65-2-1.67,2H50.63l2.52-3-2.41-2.89h1.68L54,16.54l1.58-1.92h1.63L54.8,17.49l2.52,3Z"/><path d="M64.11,14.62l-3,6.34a2.91,2.91,0,0,1-1,1.35,2.63,2.63,0,0,1-1.46.39,3.08,3.08,0,0,1-1-.14,2.15,2.15,0,0,1-.77-.4l.6-1a1.63,1.63,0,0,0,.51.3,1.81,1.81,0,0,0,.6.11,1.05,1.05,0,0,0,.66-.19,1.71,1.71,0,0,0,.48-.62l.1-.24L57,14.62h1.57l2,4.34,2-4.34Z"/><path d="M70,19.39v1.1H64.4v-.87l3.53-3.9H64.47v-1.1h5.4v.87l-3.55,3.9Z"/><path d="M6.68,39.71H2.45l-.83,1.78H0l3.8-7.7H5.35l3.81,7.7H7.52Zm-.52-1.12-1.6-3.37L3,38.59Z"/><path d="M17.34,38.19a1.83,1.83,0,0,1,.41,1.21A1.74,1.74,0,0,1,16.9,41a4.58,4.58,0,0,1-2.46.54h-4.2v-7.7h4a4.12,4.12,0,0,1,2.3.54,1.65,1.65,0,0,1,.81,1.46,1.77,1.77,0,0,1-.29,1,1.94,1.94,0,0,1-.79.68A2.28,2.28,0,0,1,17.34,38.19Zm-5.53-3.28V37H14a2.41,2.41,0,0,0,1.26-.27.87.87,0,0,0,.44-.79.89.89,0,0,0-.44-.8A2.41,2.41,0,0,0,14,34.91Zm4.36,4.35q0-1.11-1.83-1.11H11.81v2.22h2.53Q16.17,40.37,16.17,39.26Z"/><path d="M21,41.09a4,4,0,0,1-1.61-1.41,3.8,3.8,0,0,1,0-4.07A4.18,4.18,0,0,1,21,34.19a5.16,5.16,0,0,1,2.31-.51,5.21,5.21,0,0,1,1.89.33,3.76,3.76,0,0,1,1.45,1l-1,.87a3.11,3.11,0,0,0-2.26-.9,3.44,3.44,0,0,0-1.56.34,2.64,2.64,0,0,0-1.07,1,2.53,2.53,0,0,0-.39,1.39,2.57,2.57,0,0,0,.39,1.4,2.69,2.69,0,0,0,1.07,1,3.44,3.44,0,0,0,1.56.35,3.12,3.12,0,0,0,2.26-.91l1,.88a3.94,3.94,0,0,1-1.45,1,5.3,5.3,0,0,1-1.9.33A5.17,5.17,0,0,1,21,41.09Z"/><path d="M28.2,33.79h3.7a5.71,5.71,0,0,1,2.4.48,3.82,3.82,0,0,1,1.63,1.35,3.57,3.57,0,0,1,.58,2,3.52,3.52,0,0,1-.58,2A3.82,3.82,0,0,1,34.3,41a5.71,5.71,0,0,1-2.4.48H28.2Zm3.62,6.49A4,4,0,0,0,33.46,40a2.62,2.62,0,0,0,1.09-3.71,2.47,2.47,0,0,0-1.09-.92A3.84,3.84,0,0,0,31.82,35H29.77v5.28Z"/><path d="M44.51,40.29v1.2H38.17v-7.7h6.17V35h-4.6v2h4.08v1.18H39.74v2.12Z"/><path d="M47.83,35v2.34h4.08v1.21H47.83v3H46.26v-7.7h6.17V35Z"/><path d="M59.63,37.55h1.48v3.07a4.77,4.77,0,0,1-1.52.73,6.29,6.29,0,0,1-1.79.25,5.24,5.24,0,0,1-2.33-.51,4.08,4.08,0,0,1-1.63-1.41,3.8,3.8,0,0,1,0-4.07,4.14,4.14,0,0,1,1.64-1.42,5.3,5.3,0,0,1,2.35-.51,5.62,5.62,0,0,1,1.93.32,3.76,3.76,0,0,1,1.46.94l-1,.88a3.32,3.32,0,0,0-2.33-.88,3.57,3.57,0,0,0-1.59.34A2.62,2.62,0,0,0,55.23,39a2.75,2.75,0,0,0,1.08,1,3.53,3.53,0,0,0,1.58.35,3.6,3.6,0,0,0,1.74-.4Z"/><path d="M70.69,33.79v7.7H69.12v-3.3H64.75v3.3H63.18v-7.7h1.57V37h4.37V33.79Z"/><path d="M73,33.79h1.57v7.7H73Z"/><path d="M76.63,41.31a2.88,2.88,0,0,1-1.11-.82l.89-1a2.09,2.09,0,0,0,1.68.88c.87,0,1.31-.47,1.31-1.42V35h-3v-1.2H81V38.9a2.67,2.67,0,0,1-.72,2,3,3,0,0,1-2.13.67A3.84,3.84,0,0,1,76.63,41.31Z"/><path d="M86.08,38.27l-1.34,1.25v2H83.17v-7.7h1.57v4l4.18-4h1.76l-3.55,3.45,3.77,4.25H89.06Z"/><path d="M92,33.79h1.57v6.49H98v1.21H92Z"/><path d="M107,41.49l0-5.1-2.77,4.22h-.7l-2.78-4.16v5H99.2v-7.7h1.3l3.35,5.11,3.3-5.11h1.29v7.7Z"/><path d="M118.24,33.79v7.7H117l-4.66-5.21v5.21h-1.56v-7.7H112L116.68,39V33.79Z"/><path d="M2.81,53.09a4,4,0,0,1-1.63-1.42,3.79,3.79,0,0,1,0-4.06,4.18,4.18,0,0,1,1.63-1.42,5.24,5.24,0,0,1,2.33-.51,5.21,5.21,0,0,1,2.33.51A4,4,0,0,1,9.1,47.61a3.8,3.8,0,0,1,0,4.07,4,4,0,0,1-1.63,1.41,5.21,5.21,0,0,1-2.33.51A5.24,5.24,0,0,1,2.81,53.09ZM6.66,52a2.58,2.58,0,0,0,1.07-1,2.61,2.61,0,0,0,.38-1.39,2.58,2.58,0,0,0-1.45-2.36,3.27,3.27,0,0,0-1.52-.34,3.3,3.3,0,0,0-1.52.34,2.68,2.68,0,0,0-1.06,1,2.58,2.58,0,0,0-.39,1.39A2.53,2.53,0,0,0,2.56,51a2.61,2.61,0,0,0,1.06,1,3.3,3.3,0,0,0,1.52.35A3.27,3.27,0,0,0,6.66,52Z"/><path d="M16.75,46.12a2.77,2.77,0,0,1,1.25,1A2.64,2.64,0,0,1,18,50a2.77,2.77,0,0,1-1.25.95,5.06,5.06,0,0,1-1.91.33H12.93v2.22H11.36v-7.7h3.48A5.06,5.06,0,0,1,16.75,46.12Zm-.43,3.54a1.47,1.47,0,0,0,0-2.26,2.52,2.52,0,0,0-1.55-.4H12.93v3.06h1.84A2.52,2.52,0,0,0,16.32,49.66Z"/><path d="M29.05,54.26a2.7,2.7,0,0,1-1,.68,3,3,0,0,1-1.22.23,3.5,3.5,0,0,1-1.59-.35,7,7,0,0,1-1.66-1.24,5,5,0,0,1-2.1-.62A4,4,0,0,1,20,51.56a3.8,3.8,0,0,1,.07-4,4.18,4.18,0,0,1,1.63-1.42,5.24,5.24,0,0,1,2.33-.51,5.18,5.18,0,0,1,2.33.51A4,4,0,0,1,28,47.61a3.58,3.58,0,0,1,.6,2,3.72,3.72,0,0,1-.4,1.69,3.92,3.92,0,0,1-1.11,1.32,4.64,4.64,0,0,1-1.66.79,2.77,2.77,0,0,0,.69.49,1.66,1.66,0,0,0,.73.16,2,2,0,0,0,1.44-.62ZM21.49,51a2.61,2.61,0,0,0,1.06,1,3.3,3.3,0,0,0,1.52.35A3.35,3.35,0,0,0,25.6,52a2.61,2.61,0,0,0,1.06-1A2.53,2.53,0,0,0,27,49.64a2.57,2.57,0,0,0-.38-1.39,2.68,2.68,0,0,0-1.06-1,3.34,3.34,0,0,0-1.53-.34,3.3,3.3,0,0,0-1.52.34,2.68,2.68,0,0,0-1.06,1,2.58,2.58,0,0,0-.39,1.39A2.53,2.53,0,0,0,21.49,51Z"/><path d="M35.82,53.49l-1.73-2.25H31.86v2.24H30.29v-7.7h3.48a5.06,5.06,0,0,1,1.91.33,2.72,2.72,0,0,1,1.25,1,2.64,2.64,0,0,1,0,3,2.68,2.68,0,0,1-1.33.93l1.94,2.53Zm-.57-6.09A2.52,2.52,0,0,0,33.7,47H31.86v3.07H33.7a2.52,2.52,0,0,0,1.55-.4,1.33,1.33,0,0,0,.53-1.14A1.3,1.3,0,0,0,35.25,47.4Z"/><path d="M39.85,53.35a4.16,4.16,0,0,1-1.45-.67L39,51.57a4.41,4.41,0,0,0,1.27.61,5,5,0,0,0,1.52.23,2.87,2.87,0,0,0,1.4-.27.83.83,0,0,0,.47-.73.67.67,0,0,0-.26-.54,2,2,0,0,0-.66-.34c-.27-.08-.63-.17-1.09-.27A13.79,13.79,0,0,1,40,49.84a2.7,2.7,0,0,1-1-.65A1.7,1.7,0,0,1,38.58,48,1.91,1.91,0,0,1,39,46.82,2.53,2.53,0,0,1,40.11,46,5.17,5.17,0,0,1,42,45.68a6.51,6.51,0,0,1,1.52.18,4.45,4.45,0,0,1,1.29.5l-.49,1.12A5.5,5.5,0,0,0,43.15,47,4.82,4.82,0,0,0,42,46.87a2.63,2.63,0,0,0-1.38.29.85.85,0,0,0-.46.76.65.65,0,0,0,.26.53,1.94,1.94,0,0,0,.66.33,11.07,11.07,0,0,0,1.09.28,12.66,12.66,0,0,1,1.54.41,2.54,2.54,0,0,1,1,.66,1.6,1.6,0,0,1,.43,1.18,1.88,1.88,0,0,1-.38,1.16,2.55,2.55,0,0,1-1.15.82,5,5,0,0,1-1.88.31A6.9,6.9,0,0,1,39.85,53.35Z"/><path d="M48.3,47H45.5V45.79h7.17V47h-2.8v6.49H48.3Z"/><path d="M54.61,52.71a3.3,3.3,0,0,1-1-2.57V45.79H55.2v4.29c0,1.51.71,2.27,2.15,2.27s2.13-.76,2.13-2.27V45.79H61v4.35a3.33,3.33,0,0,1-1,2.57,4.62,4.62,0,0,1-5.45,0Z"/><path d="M71,45.79l-3.68,7.7H65.73L62,45.79h1.7l2.82,5.94,2.83-5.94Z"/><path d="M84.38,45.79l-2.8,7.7H79.91l-2.09-5.7-2.12,5.7H74l-2.8-7.7h1.63L75,51.64l2.18-5.85h1.45l2.14,5.89,2.16-5.89Z"/><path d="M90.86,53.49l-2.29-2.92L86.3,53.49H84.51l3.14-3.92-3-3.78h1.78l2.16,2.74,2.13-2.74h1.71l-3,3.72,3.17,4Z"/><path d="M97.19,50.78v2.71H95.62V50.8l-3.32-5H94l2.47,3.75L99,45.79h1.55Z"/><path d="M108.09,52.28v1.21h-7.21v-1l5-5.54H101V45.79h7v1l-5,5.53Z"/></g></g></svg>