<svg xmlns="http://www.w3.org/2000/svg" viewBox="0 0 92.57 55.33"><defs><style>.cls-1{fill:#1f2325;}</style></defs><title>open-sans</title><g id="Layer_2" data-name="Layer 2"><g id="Layer_1-2" data-name="Layer 1"><path class="cls-1" d="M4.23,8.42l-.18-.84H4a2.53,2.53,0,0,1-.88.75A2.7,2.7,0,0,1,2,8.52,2,2,0,0,1,.66,8.07,1.64,1.64,0,0,1,.17,6.79C.17,5.6,1.12,5,3,4.92l1,0V4.52a1.48,1.48,0,0,0-.3-1,1.23,1.23,0,0,0-1-.33,3.92,3.92,0,0,0-1.67.45L.83,2.94a4.17,4.17,0,0,1,1-.37,4.13,4.13,0,0,1,1-.14,2.26,2.26,0,0,1,1.56.47,1.94,1.94,0,0,1,.51,1.5v4Zm-2-.63a1.79,1.79,0,0,0,1.31-.46A1.67,1.67,0,0,0,4,6.05V5.52l-.9,0a3.13,3.13,0,0,0-1.53.33,1,1,0,0,0-.47.91,1,1,0,0,0,.29.74A1.27,1.27,0,0,0,2.21,7.79Z"/><path class="cls-1" d="M9.46,2.43a2.2,2.2,0,0,1,1.81.8,3.49,3.49,0,0,1,.64,2.24,3.5,3.5,0,0,1-.65,2.25,2.16,2.16,0,0,1-1.8.8,2.59,2.59,0,0,1-1.05-.21,2,2,0,0,1-.79-.65H7.55l-.19.76H6.72V.06h.9v2c0,.45,0,.86,0,1.22h0A2.12,2.12,0,0,1,9.46,2.43Zm-.13.75A1.55,1.55,0,0,0,8,3.7a3,3,0,0,0-.4,1.77A2.9,2.9,0,0,0,8,7.24a1.58,1.58,0,0,0,1.33.54,1.38,1.38,0,0,0,1.22-.6A3.06,3.06,0,0,0,11,5.46a3,3,0,0,0-.4-1.72A1.44,1.44,0,0,0,9.33,3.18Z"/><path class="cls-1" d="M15.82,8.52a2.52,2.52,0,0,1-2-.78,3.24,3.24,0,0,1-.7-2.23,3.31,3.31,0,0,1,.71-2.28,2.55,2.55,0,0,1,2-.81,4,4,0,0,1,.84.09,2.75,2.75,0,0,1,.67.22l-.27.76a3.82,3.82,0,0,0-.65-.2,3,3,0,0,0-.61-.08c-1.2,0-1.8.76-1.8,2.29a2.77,2.77,0,0,0,.44,1.67,1.53,1.53,0,0,0,1.3.58,3.93,3.93,0,0,0,1.5-.32v.79A3.22,3.22,0,0,1,15.82,8.52Z"/><path class="cls-1" d="M22.71,7.63h-.05a2.09,2.09,0,0,1-1.85.89A2.15,2.15,0,0,1,19,7.73a3.44,3.44,0,0,1-.65-2.24A3.54,3.54,0,0,1,19,3.23a2.16,2.16,0,0,1,1.79-.81,2.15,2.15,0,0,1,1.84.87h.07l0-.42,0-.42V.06h.89V8.42h-.72Zm-1.79.15a1.65,1.65,0,0,0,1.33-.5,2.52,2.52,0,0,0,.41-1.6V5.49a2.94,2.94,0,0,0-.42-1.79,1.59,1.59,0,0,0-1.33-.53,1.36,1.36,0,0,0-1.2.61A3.1,3.1,0,0,0,19.3,5.5a2.94,2.94,0,0,0,.41,1.7A1.39,1.39,0,0,0,20.92,7.78Z"/><path class="cls-1" d="M27.93,8.52a2.7,2.7,0,0,1-2.06-.79,3.1,3.1,0,0,1-.76-2.21,3.45,3.45,0,0,1,.7-2.26,2.34,2.34,0,0,1,1.89-.84,2.25,2.25,0,0,1,1.75.73,2.8,2.8,0,0,1,.64,1.92v.56H26a2.35,2.35,0,0,0,.52,1.58,1.81,1.81,0,0,0,1.4.54,4.85,4.85,0,0,0,1.88-.4v.79a4.44,4.44,0,0,1-.89.3A5.86,5.86,0,0,1,27.93,8.52Zm-.24-5.35a1.43,1.43,0,0,0-1.13.46,2.07,2.07,0,0,0-.5,1.28h3.08a2,2,0,0,0-.38-1.29A1.32,1.32,0,0,0,27.69,3.17Z"/><path class="cls-1" d="M34.27,3.22h-1.5v5.2h-.89V3.22H30.82v-.4l1.06-.32V2.17C31.88.72,32.51,0,33.77,0a3.79,3.79,0,0,1,1.1.19L34.64.9a3,3,0,0,0-.88-.16.87.87,0,0,0-.75.33,1.9,1.9,0,0,0-.24,1.08v.38h1.5Z"/><path class="cls-1" d="M40.16,2.53v.56l-1.09.13a2,2,0,0,1,.27.49,1.88,1.88,0,0,1,.12.69,1.72,1.72,0,0,1-.6,1.38,2.38,2.38,0,0,1-1.62.51,2.56,2.56,0,0,1-.49,0,.89.89,0,0,0-.57.76.4.4,0,0,0,.2.36,1.55,1.55,0,0,0,.68.11h1a2.38,2.38,0,0,1,1.47.4,1.41,1.41,0,0,1,.51,1.18,1.68,1.68,0,0,1-.78,1.49,4.22,4.22,0,0,1-2.29.51,3.1,3.1,0,0,1-1.78-.43,1.39,1.39,0,0,1-.63-1.21A1.36,1.36,0,0,1,35,8.49a1.81,1.81,0,0,1,1-.54.82.82,0,0,1-.38-.31.81.81,0,0,1-.16-.5.94.94,0,0,1,.18-.57,1.7,1.7,0,0,1,.54-.46,1.65,1.65,0,0,1-.75-.64,1.9,1.9,0,0,1-.28-1A1.89,1.89,0,0,1,35.65,3a2.34,2.34,0,0,1,1.64-.53,3,3,0,0,1,.83.11ZM35.46,9.4a.8.8,0,0,0,.41.73,2.26,2.26,0,0,0,1.15.25A3.14,3.14,0,0,0,38.68,10a1,1,0,0,0,.54-.91.7.7,0,0,0-.29-.66,2.22,2.22,0,0,0-1.11-.19H36.75a1.44,1.44,0,0,0-1,.29A1.06,1.06,0,0,0,35.46,9.4Zm.49-5a1.16,1.16,0,0,0,.35.93,1.38,1.38,0,0,0,1,.32,1.14,1.14,0,0,0,1.3-1.27,1.17,1.17,0,0,0-1.32-1.33,1.3,1.3,0,0,0-1,.34A1.36,1.36,0,0,0,36,4.42Z"/><path class="cls-1" d="M45.4,8.42V4.61a1.55,1.55,0,0,0-.33-1.08,1.36,1.36,0,0,0-1-.35,1.68,1.68,0,0,0-1.35.5,2.54,2.54,0,0,0-.43,1.66V8.42h-.89V.06h.89V2.59a7.59,7.59,0,0,1,0,.76h.05A1.75,1.75,0,0,1,43,2.68a2.33,2.33,0,0,1,1.11-.25A2.24,2.24,0,0,1,45.75,3a2.15,2.15,0,0,1,.54,1.63V8.42Z"/><path class="cls-1" d="M48,.93a.57.57,0,0,1,.15-.44.52.52,0,0,1,.38-.15.51.51,0,0,1,.37.15.59.59,0,0,1,.16.44.6.6,0,0,1-.16.45.51.51,0,0,1-.37.15.52.52,0,0,1-.38-.15A.6.6,0,0,1,48,.93Zm1,7.49h-.89V2.53H49Z"/><path class="cls-1" d="M50.19,11.06a2.14,2.14,0,0,1-.83-.14V10.2a2.69,2.69,0,0,0,.73.11.8.8,0,0,0,.62-.23,1.06,1.06,0,0,0,.19-.7V2.53h.89V9.32C51.79,10.48,51.26,11.06,50.19,11.06ZM50.83.93A.57.57,0,0,1,51,.49a.53.53,0,0,1,.74,0,.55.55,0,0,1,.16.44.56.56,0,0,1-.16.45.53.53,0,0,1-.74,0A.6.6,0,0,1,50.83.93Z"/><path class="cls-1" d="M54.56,5.4c.16-.21.39-.5.71-.86l1.9-2h1.06L55.84,5l2.55,3.38H57.31L55.24,5.63l-.68.58V8.42h-.88V.06h.88V4.49c0,.2,0,.5,0,.91Z"/><path class="cls-1" d="M60.35,8.42h-.89V.06h.89Z"/><path class="cls-1" d="M69.74,8.42V4.59a1.61,1.61,0,0,0-.3-1.06,1.17,1.17,0,0,0-.93-.35,1.49,1.49,0,0,0-1.23.48,2.24,2.24,0,0,0-.4,1.47V8.42H66V4.59a1.61,1.61,0,0,0-.3-1.06,1.19,1.19,0,0,0-.94-.35,1.47,1.47,0,0,0-1.23.5,2.74,2.74,0,0,0-.39,1.65V8.42h-.89V2.53H63l.15.81h0a1.86,1.86,0,0,1,.71-.68,2.2,2.2,0,0,1,1-.24,1.77,1.77,0,0,1,1.81,1h0a1.91,1.91,0,0,1,.76-.73,2.4,2.4,0,0,1,1.14-.27,2,2,0,0,1,1.5.52,2.28,2.28,0,0,1,.49,1.64V8.42Z"/><path class="cls-1" d="M77.55,5.47a3.27,3.27,0,0,1-.72,2.25,2.59,2.59,0,0,1-2,.8,2.64,2.64,0,0,1-1.4-.37,2.38,2.38,0,0,1-.94-1.06,3.58,3.58,0,0,1-.34-1.62,3.23,3.23,0,0,1,.72-2.24,2.54,2.54,0,0,1,2-.81,2.51,2.51,0,0,1,2,.82A3.22,3.22,0,0,1,77.55,5.47Zm-4.48,0a2.82,2.82,0,0,0,.45,1.72,1.78,1.78,0,0,0,2.65,0,2.73,2.73,0,0,0,.46-1.72,2.7,2.7,0,0,0-.46-1.71,1.83,1.83,0,0,0-2.66,0A2.85,2.85,0,0,0,73.07,5.47Z"/><path class="cls-1" d="M81.85,8.52a2.59,2.59,0,0,1-1-.21A2,2,0,0,1,80,7.66h-.07a6.75,6.75,0,0,1,.07,1v2.42h-.89V2.53h.72l.12.81H80a2,2,0,0,1,.8-.7,2.31,2.31,0,0,1,1-.22,2.19,2.19,0,0,1,1.81.8,3.5,3.5,0,0,1,.64,2.25,3.5,3.5,0,0,1-.65,2.25A2.16,2.16,0,0,1,81.85,8.52Zm-.12-5.34a1.59,1.59,0,0,0-1.31.5A2.5,2.5,0,0,0,80,5.27v.2a2.9,2.9,0,0,0,.41,1.77,1.58,1.58,0,0,0,1.33.54,1.38,1.38,0,0,0,1.19-.62,2.91,2.91,0,0,0,.44-1.7,2.79,2.79,0,0,0-.44-1.69A1.42,1.42,0,0,0,81.73,3.18Z"/><path class="cls-1" d="M2.7,19.52a2.13,2.13,0,0,1-1.78-.8,3.44,3.44,0,0,1-.64-2.23,3.55,3.55,0,0,1,.64-2.26,2.17,2.17,0,0,1,1.8-.81,2.16,2.16,0,0,1,1.86.92h0l.13-.81h.71v8.53H4.57V19.54a7.64,7.64,0,0,1,0-.91H4.55A2.09,2.09,0,0,1,2.7,19.52Zm.13-.74a1.61,1.61,0,0,0,1.3-.48,2.62,2.62,0,0,0,.44-1.61v-.2a3,3,0,0,0-.42-1.78,1.58,1.58,0,0,0-1.33-.54,1.36,1.36,0,0,0-1.2.61A3,3,0,0,0,1.2,16.5a2.93,2.93,0,0,0,.41,1.69A1.4,1.4,0,0,0,2.83,18.78Z"/><path class="cls-1" d="M10,13.42a3.11,3.11,0,0,1,.71.07l-.13.82a3.19,3.19,0,0,0-.64-.08,1.57,1.57,0,0,0-1.22.58,2.12,2.12,0,0,0-.51,1.45v3.16H7.35V13.53h.73l.11,1.09h0A2.65,2.65,0,0,1,9,13.73,1.82,1.82,0,0,1,10,13.42Z"/><path class="cls-1" d="M15.63,17.81A1.47,1.47,0,0,1,15,19.08a2.84,2.84,0,0,1-1.72.44,3.69,3.69,0,0,1-1.82-.37v-.82a4.26,4.26,0,0,0,.91.33,3.49,3.49,0,0,0,.94.13,2.1,2.1,0,0,0,1.07-.23.72.72,0,0,0,.38-.67.73.73,0,0,0-.3-.59,4.41,4.41,0,0,0-1.17-.58,6.32,6.32,0,0,1-1.16-.53,1.71,1.71,0,0,1-.52-.52,1.42,1.42,0,0,1-.17-.7,1.32,1.32,0,0,1,.59-1.13,2.69,2.69,0,0,1,1.6-.42,4.63,4.63,0,0,1,1.86.39l-.31.72a4.37,4.37,0,0,0-1.61-.36,1.91,1.91,0,0,0-1,.2.61.61,0,0,0-.32.55.68.68,0,0,0,.12.4,1.19,1.19,0,0,0,.39.32,8.94,8.94,0,0,0,1,.43,3.81,3.81,0,0,1,1.42.77A1.37,1.37,0,0,1,15.63,17.81Z"/><path class="cls-1" d="M19,18.79a2.22,2.22,0,0,0,.45,0,1.77,1.77,0,0,0,.35-.07v.68a1.43,1.43,0,0,1-.42.12,3.25,3.25,0,0,1-.51,0q-1.71,0-1.71-1.8v-3.5h-.84v-.43l.84-.37.38-1.25H18v1.36h1.71v.69H18v3.47a1.22,1.22,0,0,0,.25.81A.89.89,0,0,0,19,18.79Z"/><path class="cls-1" d="M21.81,13.53v3.82a1.55,1.55,0,0,0,.32,1.07,1.33,1.33,0,0,0,1,.36,1.65,1.65,0,0,0,1.35-.51,2.49,2.49,0,0,0,.43-1.65V13.53h.89v5.89h-.74L25,18.63h0a1.8,1.8,0,0,1-.76.66,2.51,2.51,0,0,1-1.11.23A2.24,2.24,0,0,1,21.44,19a2.15,2.15,0,0,1-.54-1.63V13.53Z"/><path class="cls-1" d="M29,19.42l-2.23-5.89h.95L29,17a15.53,15.53,0,0,1,.5,1.59h.05a12,12,0,0,1,.37-1.18l1.41-3.9h1l-2.24,5.89Z"/><path class="cls-1" d="M38,19.42,37,16c-.07-.21-.2-.69-.38-1.44h0c-.14.63-.26,1.11-.37,1.45l-1.11,3.45H34l-1.61-5.89h.93l.87,3.38a13.4,13.4,0,0,1,.34,1.56h.05a7.17,7.17,0,0,1,.19-.79c.08-.33.16-.58.22-.77l1.08-3.38h1l1,3.38a11,11,0,0,1,.41,1.55h0a5,5,0,0,1,.11-.6c.06-.26.44-1.71,1.12-4.33h.92L39.1,19.42Z"/><path class="cls-1" d="M43.21,16.4l-2.05-2.87h1l1.56,2.26,1.54-2.26h1L44.23,16.4l2.15,3h-1L43.73,17l-1.67,2.39h-1Z"/><path class="cls-1" d="M46.62,13.53h1l1.29,3.36a13.45,13.45,0,0,1,.53,1.66h0c0-.19.15-.5.29-.94s.64-1.8,1.46-4.08h1l-2.53,6.7a3.29,3.29,0,0,1-.88,1.41,1.87,1.87,0,0,1-1.23.42,3.66,3.66,0,0,1-.81-.09v-.72a2.73,2.73,0,0,0,.66.07,1.37,1.37,0,0,0,1.31-1l.33-.84Z"/><path class="cls-1" d="M56.86,19.42H52.59v-.61l3.21-4.59h-3v-.69h4v.69l-3.17,4.5h3.25Z"/><path class="cls-1" d="M6,42.46,5,40H1.89l-1,2.49H0l3.1-7.88h.77L7,42.46ZM4.75,39.14l-.91-2.43c-.12-.31-.24-.68-.37-1.13a9.69,9.69,0,0,1-.33,1.13l-.93,2.43Z"/><path class="cls-1" d="M8,34.61h2.22a4.21,4.21,0,0,1,2.26.47,1.64,1.64,0,0,1,.7,1.48,1.72,1.72,0,0,1-.39,1.15,1.9,1.9,0,0,1-1.14.59v.05c1.19.2,1.79.83,1.79,1.88a2,2,0,0,1-.71,1.64,3,3,0,0,1-2,.59H8ZM9,38h1.51a2.47,2.47,0,0,0,1.39-.3,1.17,1.17,0,0,0,.42-1,1,1,0,0,0-.47-1,3,3,0,0,0-1.5-.29H9Zm0,.78v2.93h1.64A2.35,2.35,0,0,0,12,41.32a1.37,1.37,0,0,0,.48-1.16A1.21,1.21,0,0,0,12,39.09a2.61,2.61,0,0,0-1.49-.34Z"/><path class="cls-1" d="M18.53,35.31a2.55,2.55,0,0,0-2,.87,3.46,3.46,0,0,0-.75,2.36,3.56,3.56,0,0,0,.72,2.38,2.57,2.57,0,0,0,2.06.84,6.88,6.88,0,0,0,1.87-.3v.8a5.59,5.59,0,0,1-2,.31,3.41,3.41,0,0,1-2.68-1,4.32,4.32,0,0,1-.94-3,4.77,4.77,0,0,1,.45-2.13A3.31,3.31,0,0,1,16.52,35a4,4,0,0,1,2-.49A4.9,4.9,0,0,1,20.7,35l-.39.78A4.14,4.14,0,0,0,18.53,35.31Z"/><path class="cls-1" d="M28.38,38.46a4,4,0,0,1-1.06,3,4.2,4.2,0,0,1-3,1H22.11V34.61h2.4a3.85,3.85,0,0,1,2.85,1A3.8,3.8,0,0,1,28.38,38.46Zm-1,0a3.17,3.17,0,0,0-.77-2.31,3.1,3.1,0,0,0-2.29-.78H23v6.27h1.11a3.37,3.37,0,0,0,2.46-.8A3.21,3.21,0,0,0,27.41,38.49Z"/><path class="cls-1" d="M34.5,42.46H30.13V34.61H34.5v.81H31V38h3.25v.81H31v2.89H34.5Z"/><path class="cls-1" d="M37.16,42.46h-.92V34.61h4.38v.81H37.16V38.3h3.25v.81H37.16Z"/><path class="cls-1" d="M45.38,38.35H48v3.82a8.89,8.89,0,0,1-1.26.3,9.49,9.49,0,0,1-1.5.1,3.59,3.59,0,0,1-2.77-1.06,4.15,4.15,0,0,1-1-3A4.61,4.61,0,0,1,42,36.39,3.39,3.39,0,0,1,43.42,35a4.65,4.65,0,0,1,2.16-.48,5.93,5.93,0,0,1,2.35.46l-.36.81a5.08,5.08,0,0,0-2-.46,2.92,2.92,0,0,0-2.24.86,3.31,3.31,0,0,0-.81,2.37A3.38,3.38,0,0,0,43.26,41a3,3,0,0,0,2.28.82,6.53,6.53,0,0,0,1.59-.19V39.17H45.38Z"/><path class="cls-1" d="M55.89,42.46H55V38.77H50.84v3.69h-.91V34.61h.91V38H55V34.61h.91Z"/><path class="cls-1" d="M58,42.46V34.61H59v7.85Z"/><path class="cls-1" d="M60,44.53a2,2,0,0,1-.8-.14v-.78a3,3,0,0,0,.8.1,1,1,0,0,0,.81-.32,1.39,1.39,0,0,0,.27-.93V34.61H62v7.78A2.26,2.26,0,0,1,61.45,44,1.92,1.92,0,0,1,60,44.53Z"/><path class="cls-1" d="M69.72,42.46H68.65l-2.87-3.8-.82.73v3.07h-.91V34.61H65V38.5l3.56-3.89H69.6L66.44,38Z"/><path class="cls-1" d="M70.8,42.46V34.61h.91v7h3.47v.82Z"/><path class="cls-1" d="M80,42.46l-2.66-7h0c0,.55.07,1.21.07,2v5h-.84V34.61h1.37l2.49,6.48h0l2.51-6.48h1.37v7.85h-.92V37.4c0-.58,0-1.21.08-1.89h0l-2.69,7Z"/><path class="cls-1" d="M92.57,42.46h-1l-4.29-6.59h0c.06.78.08,1.49.08,2.13v4.46h-.84V34.61h1l4.28,6.56h0c0-.09,0-.4,0-.93s0-.9,0-1.12V34.61h.85Z"/><path class="cls-1" d="M7.9,49.53a4.3,4.3,0,0,1-1,3,3.34,3.34,0,0,1-2.65,1.08,3.39,3.39,0,0,1-2.68-1.06,4.41,4.41,0,0,1-.94-3,4.33,4.33,0,0,1,1-3,3.41,3.41,0,0,1,2.68-1A3.38,3.38,0,0,1,7,46.56,4.36,4.36,0,0,1,7.9,49.53Zm-6.26,0A3.69,3.69,0,0,0,2.32,52a2.4,2.4,0,0,0,2,.82,2.37,2.37,0,0,0,2-.82,3.75,3.75,0,0,0,.67-2.42,3.78,3.78,0,0,0-.66-2.41,2.42,2.42,0,0,0-2-.82,2.41,2.41,0,0,0-2,.83A3.65,3.65,0,0,0,1.64,49.53Z"/><path class="cls-1" d="M14.63,47.9a2.2,2.2,0,0,1-.82,1.83,3.67,3.67,0,0,1-2.33.65h-.92v3.08H9.65V45.61h2C13.64,45.61,14.63,46.37,14.63,47.9Zm-4.07,1.69h.82a3.08,3.08,0,0,0,1.76-.39,1.45,1.45,0,0,0,.54-1.26,1.36,1.36,0,0,0-.51-1.16,2.7,2.7,0,0,0-1.59-.38h-1Z"/><path class="cls-1" d="M23.08,49.53a4.77,4.77,0,0,1-.6,2.5,3.06,3.06,0,0,1-1.72,1.36l1.87,1.94H21.31l-1.53-1.77h-.3a3.39,3.39,0,0,1-2.68-1.06,4.36,4.36,0,0,1-.94-3,4.33,4.33,0,0,1,.95-3,3.41,3.41,0,0,1,2.68-1,3.35,3.35,0,0,1,2.64,1.07A4.31,4.31,0,0,1,23.08,49.53Zm-6.25,0A3.69,3.69,0,0,0,17.51,52a2.4,2.4,0,0,0,2,.82,2.37,2.37,0,0,0,2-.82,3.75,3.75,0,0,0,.67-2.42,3.78,3.78,0,0,0-.66-2.41,2.42,2.42,0,0,0-2-.82,2.41,2.41,0,0,0-2,.83A3.65,3.65,0,0,0,16.83,49.53Z"/><path class="cls-1" d="M25.75,50.2v3.26h-.91V45.61H27a3.44,3.44,0,0,1,2.13.55,2,2,0,0,1,.69,1.67,2.07,2.07,0,0,1-1.57,2.1l2.13,3.53H29.29l-1.9-3.26Zm0-.79H27A2.15,2.15,0,0,0,28.42,49a1.43,1.43,0,0,0,.45-1.15,1.32,1.32,0,0,0-.46-1.13,2.57,2.57,0,0,0-1.47-.34H25.75Z"/><path class="cls-1" d="M36.07,51.37A1.92,1.92,0,0,1,35.31,53a3.23,3.23,0,0,1-2,.58,5.07,5.07,0,0,1-2.14-.36v-.88a5.89,5.89,0,0,0,2.18.44,2.29,2.29,0,0,0,1.37-.35,1.12,1.12,0,0,0,.46-1,1.23,1.23,0,0,0-.16-.67,1.57,1.57,0,0,0-.55-.48,7.61,7.61,0,0,0-1.17-.5,3.65,3.65,0,0,1-1.56-.93,2,2,0,0,1-.47-1.4A1.71,1.71,0,0,1,31.91,46a2.82,2.82,0,0,1,1.8-.54,5.31,5.31,0,0,1,2.16.43l-.29.79a4.92,4.92,0,0,0-1.89-.41,1.81,1.81,0,0,0-1.13.32,1,1,0,0,0-.41.86,1.33,1.33,0,0,0,.15.67,1.49,1.49,0,0,0,.51.48,7.21,7.21,0,0,0,1.09.48,4.32,4.32,0,0,1,1.7.94A1.88,1.88,0,0,1,36.07,51.37Z"/><path class="cls-1" d="M40.09,53.46h-.91v-7H36.69v-.81h5.89v.81H40.09Z"/><path class="cls-1" d="M49.69,45.61v5.08a2.76,2.76,0,0,1-.81,2.11,3.15,3.15,0,0,1-2.23.77,3,3,0,0,1-2.2-.77,2.91,2.91,0,0,1-.77-2.13V45.61h.91v5.12a2,2,0,0,0,.54,1.51,2.55,2.55,0,0,0,3.11,0,2.07,2.07,0,0,0,.53-1.52V45.61Z"/><path class="cls-1" d="M56.25,45.61h1L54.4,53.46h-.9l-2.81-7.85h1l1.81,5.08a13.84,13.84,0,0,1,.49,1.7,14.14,14.14,0,0,1,.51-1.73Z"/><path class="cls-1" d="M65.17,53.46h-.91l-1.58-5.25c-.08-.24-.16-.53-.25-.89a5.45,5.45,0,0,1-.15-.63,12.68,12.68,0,0,1-.37,1.55l-1.54,5.22h-.9l-2.09-7.85h1l1.24,4.85A16.52,16.52,0,0,1,60,52.31a13.38,13.38,0,0,1,.43-1.92l1.41-4.78h1l1.48,4.82a15,15,0,0,1,.44,1.88,16.2,16.2,0,0,1,.38-1.86l1.24-4.84h1Z"/><path class="cls-1" d="M73.72,53.46h-1L70.57,50l-2.14,3.45h-1l2.61-4.1-2.43-3.75h1l1.95,3.11,2-3.11h1L71.1,49.33Z"/><path class="cls-1" d="M76.84,49.54l2.1-3.93h1L77.3,50.42v3h-.92v-3l-2.62-4.85h1Z"/><path class="cls-1" d="M85.76,53.46H80.37v-.71l4.16-6.32h-4v-.82h5.15v.72l-4.17,6.31h4.28Z"/></g></g></svg>